if (_typeface_js && _typeface_js.loadFace) _typeface_js.loadFace({"glyphs":{"S":{"x_min":-3,"x_max":627.4375,"ha":638,"o":"m 332 1017 q 334 995 333 1004 q 347 984 336 986 q 337 960 341 969 q 332 943 333 951 q 376 970 348 943 q 419 998 404 998 q 451 979 435 998 q 475 986 460 986 q 503 984 495 984 q 524 990 517 984 q 545 980 529 989 q 573 978 562 971 q 573 964 575 971 q 556 933 570 957 q 541 918 545 922 q 530 898 532 908 q 582 909 547 895 q 612 918 604 918 q 627 915 616 918 q 577 869 615 879 q 522 827 574 865 q 490 772 490 804 q 504 677 503 684 q 558 598 519 628 q 573 475 573 537 q 553 353 573 406 q 443 189 507 269 q 386 167 419 167 q 362 171 373 167 q 384 213 373 192 q 374 226 384 221 q 345 235 364 235 q 300 225 330 235 q 258 216 270 216 q 234 226 243 216 q 226 266 226 237 q 202 275 215 275 q 171 268 190 275 q 148 260 152 261 q 133 260 144 260 q 100 266 116 260 q 114 280 101 272 q 123 296 126 288 l 115 302 q 74 295 101 302 q 33 288 47 288 q -3 299 13 288 l -3 304 q 152 376 74 340 q 262 505 239 428 q 242 558 265 529 q 213 608 215 591 l 179 636 q 160 761 170 698 q 251 927 240 912 q 326 1017 283 975 l 332 1017 "},"/":{"x_min":17.625,"x_max":721.25,"ha":728,"o":"m 494 1008 q 497 991 497 1002 q 487 937 491 963 l 494 938 q 527 971 507 949 q 588 1014 562 1014 q 583 980 583 991 q 589 965 583 970 q 607 974 597 963 q 622 983 618 984 q 643 986 627 983 q 662 990 660 990 q 680 978 674 990 q 668 943 677 969 q 660 902 660 917 q 696 916 669 896 q 721 923 711 927 q 676 831 714 887 q 638 777 657 803 q 422 271 510 535 q 396 217 404 235 q 358 170 379 184 q 343 142 348 150 q 319 119 333 125 q 285 132 303 119 q 234 175 259 153 q 202 148 219 162 q 167 132 186 135 q 163 148 163 139 q 166 170 163 155 q 170 188 170 185 q 154 206 170 200 q 132 218 141 202 q 112 231 123 234 q 71 189 93 206 q 17 159 48 173 q 33 203 20 175 q 46 244 46 230 q 19 271 19 249 q 27 287 19 278 l 156 528 q 254 749 210 630 q 326 983 291 851 q 337 990 330 990 q 355 983 341 990 q 377 952 366 967 q 411 938 392 935 q 437 979 424 959 q 453 1009 450 999 q 472 1018 460 1018 q 494 1008 484 1018 "},"K":{"x_min":24,"x_max":760.296875,"ha":767,"o":"m 558 1001 q 561 982 561 989 q 556 956 561 975 q 552 928 552 936 q 563 902 552 910 q 604 912 583 912 q 652 895 633 912 q 674 897 667 897 q 698 887 689 897 q 692 854 694 870 q 697 842 692 847 q 708 850 702 846 q 728 859 720 859 q 745 849 739 859 l 748 845 q 675 725 727 804 q 603 606 624 646 l 603 571 l 735 376 q 754 347 748 357 q 760 329 760 338 q 750 311 760 320 q 724 271 732 283 q 687 245 708 249 q 658 196 685 229 q 640 166 643 176 q 614 159 630 168 q 592 150 598 150 q 573 162 584 150 q 547 150 561 166 q 523 137 534 135 q 458 238 479 206 q 410 295 432 274 q 396 288 401 297 q 388 272 390 278 q 386 221 386 265 q 357 164 386 176 q 344 170 350 170 q 323 154 337 170 q 296 142 308 138 q 256 157 281 157 q 222 151 241 157 q 194 144 203 145 q 120 150 157 144 q 58 183 80 156 q 58 305 58 225 q 58 422 58 385 l 58 475 l 58 496 l 58 514 l 58 529 q 58 583 58 556 q 52 640 58 611 q 39 677 55 653 q 24 708 24 700 q 49 732 24 724 q 53 750 52 740 q 55 768 55 760 q 48 824 55 786 q 42 882 42 861 q 43 902 42 895 q 37 946 43 917 q 32 991 32 975 q 34 1013 32 999 q 49 1016 45 1016 q 69 1012 60 1016 q 87 999 78 1009 q 99 962 96 987 q 105 916 102 936 q 120 955 113 927 q 134 995 127 982 q 157 994 142 998 q 175 990 172 990 q 190 999 184 990 q 218 980 202 1002 q 240 959 235 959 q 256 978 247 959 q 273 1009 259 1003 q 304 1012 295 1012 q 342 1005 327 1012 q 367 980 357 999 q 381 938 378 960 q 385 884 385 916 l 385 842 q 399 834 398 832 q 534 1025 466 929 q 558 1001 551 1022 "},"7":{"x_min":15,"x_max":726,"ha":719,"o":"m 671 903 q 695 909 685 905 q 716 908 705 914 q 726 878 726 894 q 716 839 726 861 q 700 800 700 803 q 686 758 686 787 q 686 723 686 734 q 686 711 686 716 q 685 704 685 705 q 624 512 658 637 q 568 328 590 386 q 550 307 556 323 q 544 283 545 290 q 549 263 544 276 q 550 239 554 250 q 517 200 527 236 q 481 164 507 164 q 458 146 462 148 q 445 145 454 144 q 428 166 442 160 q 401 176 409 173 q 382 168 392 180 q 369 157 373 157 q 355 164 363 157 q 328 171 347 171 q 305 171 316 171 q 292 162 296 165 q 280 160 287 160 q 271 209 276 172 q 260 268 265 246 q 316 441 282 350 q 384 612 362 555 q 367 629 384 629 q 218 610 301 610 q 53 610 136 610 q 25 616 36 613 q 15 629 15 619 q 62 664 17 653 q 108 696 108 675 q 101 721 108 703 q 131 758 105 723 q 173 778 150 783 l 178 782 q 161 789 174 789 q 137 790 141 789 q 92 799 133 791 q 30 825 50 807 q 36 842 30 840 q 60 838 45 842 q 79 834 76 834 q 101 846 94 834 q 84 867 99 853 q 72 897 68 882 q 88 922 75 922 q 256 903 159 903 q 442 903 352 903 l 471 903 l 496 903 l 518 903 l 537 903 l 554 903 q 605 903 579 903 q 656 903 630 903 l 671 903 "},"d":{"x_min":17.578125,"x_max":875,"ha":890,"o":"m 596 892 q 624 872 611 894 q 636 854 630 858 q 773 716 704 784 q 875 533 839 629 q 860 518 875 523 q 843 504 846 512 q 847 462 847 483 q 799 328 847 397 q 700 215 767 280 q 629 162 664 189 q 545 135 586 135 q 519 137 538 135 q 436 118 489 126 q 290 92 296 94 q 250 92 270 92 q 210 92 230 92 q 111 103 153 92 q 40 150 70 114 q 74 173 45 166 q 109 187 102 179 q 88 201 102 196 q 49 222 53 212 q 87 232 71 228 q 107 249 102 236 q 66 278 81 249 q 44 316 52 308 q 55 339 44 325 q 60 364 67 353 q 78 378 63 372 q 88 394 93 383 l 88 670 q 66 684 78 674 q 59 704 55 694 q 75 715 66 708 q 84 731 84 722 q 70 756 85 744 q 60 784 55 769 q 36 802 42 795 q 29 830 21 815 q 39 862 39 840 q 38 877 38 873 q 17 904 27 890 q 42 911 23 911 q 67 924 61 911 q 142 927 100 927 q 221 927 165 927 q 279 927 277 927 q 321 941 290 936 q 356 947 351 945 q 389 947 372 947 q 424 947 406 947 q 535 933 500 947 q 596 892 571 919 m 405 627 l 405 400 l 413 387 q 456 402 437 393 q 496 426 483 419 q 524 452 501 433 q 562 505 558 482 q 501 570 542 533 q 433 633 439 627 q 420 636 425 636 q 405 627 409 636 "},"Y":{"x_min":8,"x_max":792,"ha":795,"o":"m 755 1032 l 786 1032 q 792 1005 792 1019 q 785 937 787 970 q 770 855 770 915 q 749 772 770 795 q 647 542 707 692 q 552 311 575 362 q 530 238 541 274 q 502 175 519 201 q 477 193 488 175 q 453 206 466 211 q 425 158 435 173 q 381 131 408 129 q 381 163 381 152 q 377 192 381 181 q 363 211 374 202 q 318 193 340 201 q 285 218 311 209 q 251 237 259 227 q 202 220 221 226 q 163 202 182 213 q 159 227 159 215 q 179 279 159 251 q 212 327 208 319 l 284 455 l 278 480 l 120 644 l 12 776 q 18 790 18 781 q 15 802 18 795 q 8 820 8 819 q 24 834 8 828 q 38 825 31 835 q 54 824 46 815 q 44 851 54 834 q 34 873 34 867 q 50 892 34 885 q 83 916 66 899 q 105 950 101 933 q 134 931 115 950 q 150 922 145 922 q 162 927 156 922 q 159 941 162 934 q 152 963 152 961 q 160 979 152 972 q 189 966 171 980 q 219 958 206 952 q 233 983 227 973 q 253 990 239 994 q 307 947 283 987 q 329 908 318 927 q 360 855 349 872 q 400 810 379 826 q 431 831 419 813 q 455 867 443 849 l 538 1008 q 564 1021 553 1026 q 572 1011 570 1021 q 578 999 574 1001 q 604 999 586 995 q 628 1004 621 1004 q 650 986 644 1004 q 673 1004 663 990 q 692 1032 682 1018 q 714 1039 700 1033 q 734 1046 729 1046 q 755 1032 746 1046 "},"E":{"x_min":31,"x_max":658.609375,"ha":665,"o":"m 191 932 q 272 937 218 932 q 354 943 327 943 q 381 941 372 943 q 414 943 396 939 q 472 951 468 951 q 517 934 500 951 q 562 938 530 938 q 611 951 595 938 q 632 944 629 953 q 619 919 635 933 q 604 901 604 905 q 617 887 604 895 q 634 881 629 890 q 618 861 634 870 q 604 840 602 852 q 622 827 606 831 q 639 811 639 823 q 617 798 635 804 q 598 781 600 792 q 622 768 604 774 q 642 751 640 762 q 598 741 628 745 q 557 733 569 737 q 573 715 560 720 q 601 706 587 709 q 633 699 615 702 q 649 681 651 697 q 630 673 642 676 q 606 671 618 671 q 584 672 595 671 q 541 676 572 673 q 459 679 509 679 q 373 675 417 679 q 362 642 359 667 l 381 637 q 513 637 464 637 q 621 637 561 637 q 633 623 621 634 q 645 606 645 613 q 611 586 639 598 q 583 560 583 574 q 589 545 583 555 q 571 524 589 533 q 554 503 554 514 q 574 487 558 496 q 590 470 590 478 q 586 459 590 466 q 588 444 581 453 q 594 430 595 435 l 565 411 l 376 411 q 368 388 368 403 q 371 368 368 380 q 375 351 375 355 l 387 339 q 425 339 409 339 q 453 339 441 339 q 524 339 486 339 q 609 347 562 339 q 611 332 614 343 q 608 320 608 322 q 618 310 608 312 q 646 315 637 315 q 658 308 654 315 q 644 278 655 296 q 632 251 634 260 q 600 223 615 237 q 609 210 600 219 q 615 192 618 201 l 567 166 q 578 153 567 159 q 581 135 589 147 q 550 117 568 124 q 502 111 532 111 q 462 113 483 111 q 392 120 406 120 q 376 120 384 120 q 358 118 365 118 q 331 118 351 118 q 300 118 321 118 q 268 118 279 118 q 232 115 248 118 q 202 103 217 112 q 185 104 195 101 q 155 111 159 111 q 136 99 143 111 q 106 108 119 99 q 70 147 87 120 q 44 163 51 158 q 31 187 31 173 q 39 312 31 228 q 47 435 47 395 q 31 614 47 527 q 31 715 31 652 q 31 790 31 777 q 35 815 34 804 q 37 847 37 827 q 34 901 37 866 q 31 944 31 935 q 31 961 31 952 q 33 977 33 972 l 41 985 q 78 973 55 987 q 109 960 101 960 q 129 975 123 960 l 135 1001 q 163 968 157 1001 q 191 932 169 935 "},"y":{"x_min":8,"x_max":792,"ha":795,"o":"m 755 1032 l 786 1032 q 792 1005 792 1019 q 785 937 787 970 q 770 855 770 915 q 749 772 770 795 q 647 542 707 692 q 552 311 575 362 q 530 238 541 274 q 502 175 519 201 q 477 193 488 175 q 453 206 466 211 q 425 158 435 173 q 381 131 408 129 q 381 163 381 152 q 377 192 381 181 q 363 211 374 202 q 318 193 340 201 q 285 218 311 209 q 251 237 259 227 q 202 220 221 226 q 163 202 182 213 q 159 227 159 215 q 179 279 159 251 q 212 327 208 319 l 284 455 l 278 480 l 120 644 l 12 776 q 18 790 18 781 q 15 802 18 795 q 8 820 8 819 q 24 834 8 828 q 38 825 31 835 q 54 824 46 815 q 44 851 54 834 q 34 873 34 867 q 50 892 34 885 q 83 916 66 899 q 105 950 101 933 q 134 931 115 950 q 150 922 145 922 q 162 927 156 922 q 159 941 162 934 q 152 963 152 961 q 160 979 152 972 q 189 966 171 980 q 219 958 206 952 q 233 983 227 973 q 253 990 239 994 q 307 947 283 987 q 329 908 318 927 q 360 855 349 872 q 400 810 379 826 q 431 831 419 813 q 455 867 443 849 l 538 1008 q 564 1021 553 1026 q 572 1011 570 1021 q 578 999 574 1001 q 604 999 586 995 q 628 1004 621 1004 q 650 986 644 1004 q 673 1004 663 990 q 692 1032 682 1018 q 714 1039 700 1033 q 734 1046 729 1046 q 755 1032 746 1046 "},"g":{"x_min":-20,"x_max":822.40625,"ha":856,"o":"m 535 948 q 525 928 537 942 q 514 909 514 913 q 526 899 514 903 l 635 909 q 642 895 642 903 q 642 880 642 888 q 652 870 643 873 l 720 877 q 711 858 721 870 q 701 840 701 845 q 709 829 701 835 q 731 829 720 829 q 748 824 743 829 q 736 808 747 816 q 720 797 725 799 l 526 729 q 508 713 515 722 q 507 694 501 704 q 531 682 516 682 q 545 689 538 682 q 564 699 550 699 q 577 694 572 699 q 587 686 582 690 q 605 677 598 676 q 614 689 610 679 q 627 694 618 699 q 639 669 632 689 q 656 647 646 650 q 668 673 663 652 q 686 697 672 693 q 724 700 698 694 q 757 707 750 707 q 790 686 779 707 q 799 639 796 664 q 802 591 802 615 q 799 523 802 554 q 790 406 790 416 q 794 351 790 380 q 804 252 794 311 q 822 154 821 168 q 804 151 818 140 q 789 182 803 154 q 764 216 775 209 q 757 189 757 205 q 760 164 757 180 q 763 140 763 147 q 763 132 763 136 q 760 124 760 126 q 739 143 752 126 q 717 160 725 160 q 703 148 710 160 q 687 112 706 123 q 669 121 679 110 q 655 132 659 132 q 632 121 647 130 q 609 112 617 112 q 604 141 606 129 q 594 162 602 154 q 571 154 584 164 q 550 143 557 144 q 471 137 524 143 q 392 132 418 132 q 359 132 377 132 q 314 143 341 132 q 208 215 243 191 q 115 309 144 258 q 37 405 58 375 q -17 511 0 458 q -20 529 -20 518 q -10 558 -20 544 q 11 583 -5 566 q 86 726 34 654 q 197 853 125 780 q 292 906 230 887 q 394 939 382 934 q 471 950 440 946 q 531 955 502 955 l 535 948 m 452 684 q 404 640 430 669 q 363 587 393 627 q 339 552 351 570 q 328 518 328 534 q 330 501 328 506 l 396 431 q 420 425 415 425 q 434 425 426 425 q 497 445 472 425 q 500 481 500 470 q 485 586 500 523 q 469 666 471 650 q 464 679 471 673 q 452 684 457 686 "},"–":{"x_min":23,"x_max":630,"ha":630,"o":"m 366 717 l 587 717 q 600 718 598 717 q 572 694 596 701 q 543 683 548 687 l 533 672 q 567 661 543 661 l 593 661 q 613 658 608 661 q 590 635 608 641 q 555 623 566 628 q 552 605 545 614 q 588 594 560 601 q 630 582 616 587 q 611 564 630 570 q 590 555 593 557 q 548 532 585 532 q 512 517 512 532 q 518 495 512 508 q 485 479 510 483 q 453 465 460 475 q 481 445 460 452 q 505 436 502 438 l 502 423 q 449 414 476 417 q 389 412 423 412 q 302 412 363 412 q 235 412 240 412 q 147 402 209 412 q 96 396 113 396 q 51 402 75 396 q 23 466 23 429 q 24 480 23 476 q 47 516 43 484 q 74 550 51 547 q 79 561 79 557 q 74 591 76 576 q 99 609 92 602 q 107 623 107 615 q 101 658 113 640 q 68 704 84 680 q 87 725 68 717 q 156 717 120 717 q 235 717 191 717 q 302 717 258 717 q 366 717 345 717 "},"e":{"x_min":31,"x_max":658.609375,"ha":665,"o":"m 191 932 q 272 937 218 932 q 354 943 327 943 q 381 941 372 943 q 414 943 396 939 q 472 951 468 951 q 517 934 500 951 q 562 938 530 938 q 611 951 595 938 q 632 944 629 953 q 619 919 635 933 q 604 901 604 905 q 617 887 604 895 q 634 881 629 890 q 618 861 634 870 q 604 840 602 852 q 622 827 606 831 q 639 811 639 823 q 617 798 635 804 q 598 781 600 792 q 622 768 604 774 q 642 751 640 762 q 598 741 628 745 q 557 733 569 737 q 573 715 560 720 q 601 706 587 709 q 633 699 615 702 q 649 681 651 697 q 630 673 642 676 q 606 671 618 671 q 584 672 595 671 q 541 676 572 673 q 459 679 509 679 q 373 675 417 679 q 362 642 359 667 l 381 637 q 513 637 464 637 q 621 637 561 637 q 633 623 621 634 q 645 606 645 613 q 611 586 639 598 q 583 560 583 574 q 589 545 583 555 q 571 524 589 533 q 554 503 554 514 q 574 487 558 496 q 590 470 590 478 q 586 459 590 466 q 588 444 581 453 q 594 430 595 435 l 565 411 l 376 411 q 368 388 368 403 q 371 368 368 380 q 375 351 375 355 l 387 339 q 425 339 409 339 q 453 339 441 339 q 524 339 486 339 q 609 347 562 339 q 611 332 614 343 q 608 320 608 322 q 618 310 608 312 q 646 315 637 315 q 658 308 654 315 q 644 278 655 296 q 632 251 634 260 q 600 223 615 237 q 609 210 600 219 q 615 192 618 201 l 567 166 q 578 153 567 159 q 581 135 589 147 q 550 117 568 124 q 502 111 532 111 q 462 113 483 111 q 392 120 406 120 q 376 120 384 120 q 358 118 365 118 q 331 118 351 118 q 300 118 321 118 q 268 118 279 118 q 232 115 248 118 q 202 103 217 112 q 185 104 195 101 q 155 111 159 111 q 136 99 143 111 q 106 108 119 99 q 70 147 87 120 q 44 163 51 158 q 31 187 31 173 q 39 312 31 228 q 47 435 47 395 q 31 614 47 527 q 31 715 31 652 q 31 790 31 777 q 35 815 34 804 q 37 847 37 827 q 34 901 37 866 q 31 944 31 935 q 31 961 31 952 q 33 977 33 972 l 41 985 q 78 973 55 987 q 109 960 101 960 q 129 975 123 960 l 135 1001 q 163 968 157 1001 q 191 932 169 935 "},"J":{"x_min":2.796875,"x_max":589,"ha":623,"o":"m 273 962 q 279 935 279 955 q 284 907 279 915 q 301 862 294 878 q 321 843 309 847 l 328 850 q 330 876 330 866 q 330 903 330 884 q 330 929 330 921 q 332 959 330 950 q 344 959 339 961 q 362 950 350 957 q 372 896 372 934 q 386 841 372 857 q 397 846 393 840 q 401 857 400 854 l 411 910 q 433 894 419 910 q 457 886 446 879 q 472 914 465 903 q 491 923 478 926 q 527 937 514 912 q 533 969 529 959 q 548 989 538 979 q 571 989 559 989 q 585 976 582 989 q 587 942 587 964 q 587 908 587 921 q 587 852 587 890 q 587 797 587 815 q 589 732 589 766 q 589 659 589 698 q 589 542 589 612 q 589 351 589 386 q 532 251 570 336 q 460 163 505 188 q 426 143 446 148 q 378 139 406 139 l 344 139 q 298 131 323 134 q 250 129 273 129 q 145 145 190 129 q 65 204 99 162 q 42 216 54 209 q 27 234 29 223 q 48 247 29 238 q 62 272 67 255 q 53 297 53 283 q 63 330 53 311 q 45 378 51 340 q 12 422 39 416 q 2 449 2 433 q 6 469 2 460 q 31 479 17 479 q 67 466 43 479 q 97 452 91 454 q 291 408 194 430 q 298 426 298 415 q 292 447 298 431 q 290 473 287 463 q 272 730 290 595 q 231 977 261 814 l 239 993 q 260 984 251 993 q 273 962 269 975 "},"q":{"x_min":12,"x_max":930.578125,"ha":932,"o":"m 496 989 q 711 941 619 989 q 861 780 817 887 q 860 765 860 769 q 887 671 860 730 q 915 572 915 611 q 915 554 915 567 q 909 518 915 536 q 894 484 898 495 q 854 446 864 457 q 824 403 834 425 q 854 332 831 374 q 890 260 884 278 q 915 204 897 242 q 930 170 927 176 q 898 159 915 159 q 849 178 879 159 q 798 204 813 201 q 804 177 793 193 q 810 152 814 161 q 784 154 795 149 q 746 179 758 172 q 744 161 741 175 q 748 145 748 147 q 743 139 748 140 q 726 143 739 138 q 680 183 695 171 q 625 203 650 207 q 523 179 578 189 q 420 170 469 170 q 263 198 331 170 q 146 271 195 226 q 74 382 89 324 q 25 465 31 454 q 12 520 12 495 q 32 578 12 552 l 22 621 q 84 779 58 726 q 186 915 126 862 q 231 929 207 911 q 273 954 260 952 q 468 1007 360 1007 l 496 989 m 402 740 q 354 663 375 710 q 316 571 334 615 q 314 557 314 560 q 330 519 314 540 q 360 481 353 489 q 380 468 367 474 q 416 463 393 463 q 459 468 425 463 q 508 473 492 473 q 560 524 533 491 q 607 583 579 547 l 607 607 q 578 661 596 635 q 541 710 568 678 q 473 725 518 710 q 402 740 428 740 "},"b":{"x_min":-16.21875,"x_max":706.8125,"ha":722,"o":"m 302 953 l 515 953 q 529 932 527 948 q 536 910 531 916 q 610 855 577 895 q 705 731 657 792 q 706 715 706 726 q 695 676 706 697 q 659 615 676 645 l 579 519 q 589 485 579 501 q 630 437 610 460 q 675 305 675 378 q 627 203 661 251 q 543 126 593 156 q 504 119 525 119 q 476 120 487 119 q 427 126 434 126 q 406 126 416 126 q 391 120 395 122 q 331 126 370 120 q 271 132 291 132 q 250 130 257 132 q 241 138 242 137 q 220 151 228 151 q 210 148 215 151 q 184 131 198 140 q 159 124 171 123 q 146 145 150 138 q 126 156 138 159 q 106 124 108 129 q 73 102 92 108 q 57 104 62 104 q 31 104 39 104 q 1 117 9 104 q 11 187 11 145 q 11 269 11 228 l 11 349 q 15 445 11 403 q 31 526 20 487 q 33 541 33 531 q 27 578 33 559 q 15 623 15 610 q 15 675 15 635 q 15 748 15 715 l 15 851 q -3 867 12 857 q -14 889 -20 877 q 4 898 -2 894 q 16 910 12 902 l 16 951 q 41 955 28 951 q 68 963 54 959 q 111 937 89 949 q 125 945 118 937 q 139 935 133 939 q 152 935 145 931 q 159 949 159 938 q 161 969 159 965 q 182 963 172 969 q 220 945 213 946 q 234 933 228 937 q 246 935 239 930 q 256 959 253 941 q 271 982 258 977 q 288 972 280 982 q 302 953 295 963 m 309 754 q 299 727 299 745 q 301 706 299 713 q 306 694 305 698 q 308 676 308 690 q 308 653 308 665 q 321 640 310 642 q 351 670 342 656 q 362 712 366 691 q 339 741 352 728 q 309 754 325 754 m 301 437 q 301 405 301 419 q 301 380 301 391 q 304 339 301 355 q 317 310 307 323 q 351 323 337 314 q 370 348 365 331 q 357 394 377 371 q 317 440 336 417 q 301 437 308 438 "},"D":{"x_min":17.578125,"x_max":875,"ha":890,"o":"m 596 892 q 624 872 611 894 q 636 854 630 858 q 773 716 704 784 q 875 533 839 629 q 860 518 875 523 q 843 504 846 512 q 847 462 847 483 q 799 328 847 397 q 700 215 767 280 q 629 162 664 189 q 545 135 586 135 q 519 137 538 135 q 436 118 489 126 q 290 92 296 94 q 250 92 270 92 q 210 92 230 92 q 111 103 153 92 q 40 150 70 114 q 74 173 45 166 q 109 187 102 179 q 88 201 102 196 q 49 222 53 212 q 87 232 71 228 q 107 249 102 236 q 66 278 81 249 q 44 316 52 308 q 55 339 44 325 q 60 364 67 353 q 78 378 63 372 q 88 394 93 383 l 88 670 q 66 684 78 674 q 59 704 55 694 q 75 715 66 708 q 84 731 84 722 q 70 756 85 744 q 60 784 55 769 q 36 802 42 795 q 29 830 21 815 q 39 862 39 840 q 38 877 38 873 q 17 904 27 890 q 42 911 23 911 q 67 924 61 911 q 142 927 100 927 q 221 927 165 927 q 279 927 277 927 q 321 941 290 936 q 356 947 351 945 q 389 947 372 947 q 424 947 406 947 q 535 933 500 947 q 596 892 571 919 m 405 627 l 405 400 l 413 387 q 456 402 437 393 q 496 426 483 419 q 524 452 501 433 q 562 505 558 482 q 501 570 542 533 q 433 633 439 627 q 420 636 425 636 q 405 627 409 636 "},"z":{"x_min":-39.546875,"x_max":903.640625,"ha":886,"o":"m 903 984 l 894 954 q 800 838 847 902 q 655 634 789 824 q 597 544 647 617 q 551 447 559 488 q 576 436 563 438 q 601 434 589 434 q 636 438 613 434 q 672 443 660 443 q 757 443 696 443 q 821 443 817 443 q 846 443 834 443 q 870 443 862 443 q 858 428 868 432 q 838 420 847 424 q 709 388 772 403 q 772 377 728 377 q 836 365 817 377 l 838 356 q 729 324 783 340 q 790 311 745 316 q 857 293 835 305 q 851 281 858 286 q 805 272 845 277 q 694 268 766 268 q 691 252 684 260 q 737 245 709 245 q 768 245 752 245 q 798 240 783 245 q 809 233 802 238 q 817 225 815 229 q 786 195 815 210 q 758 167 758 179 q 764 148 758 161 q 728 137 751 137 q 695 141 717 137 q 662 145 673 145 q 635 138 647 145 q 590 138 621 138 q 541 138 558 138 q 493 140 515 138 q 451 150 470 142 q 397 153 428 153 q 336 153 366 153 q 205 153 295 153 q 111 153 114 153 q 72 170 106 157 q 38 202 38 182 l 40 214 q 192 438 115 326 q 305 688 247 563 q 305 705 309 696 q 294 717 302 714 q 124 675 211 704 q -39 614 96 666 q -31 641 -40 623 q -23 666 -23 659 q -38 685 -23 677 l -38 693 q 0 722 -24 709 q 67 765 58 759 q 59 779 67 770 q 58 793 51 788 q 185 836 121 814 q 183 841 186 839 q 172 845 179 843 q 158 848 164 848 q 120 843 145 848 q 85 838 94 838 q 49 849 65 838 q 78 868 51 856 q 99 902 105 881 q 95 925 87 914 q 117 930 99 928 q 135 947 135 932 q 99 968 110 961 q 86 1004 79 982 l 101 998 l 360 998 l 552 998 l 782 998 q 820 970 801 978 q 836 979 828 970 q 853 998 843 988 q 872 1011 862 1009 q 895 999 885 1014 q 903 984 898 995 "},"w":{"x_min":-15.21875,"x_max":1221.5625,"ha":1194,"o":"m 957 1031 l 957 939 q 970 931 964 931 q 992 944 977 931 q 1012 958 1007 957 q 1027 962 1018 957 q 1044 965 1037 968 q 1049 951 1049 961 q 1046 936 1049 945 q 1044 922 1044 926 q 1062 910 1044 910 q 1089 958 1076 921 q 1126 1001 1102 995 q 1129 987 1129 997 q 1128 970 1128 976 q 1139 951 1128 955 q 1165 976 1143 954 q 1192 993 1182 993 q 1210 984 1199 993 q 1221 972 1218 981 l 1217 947 l 1131 730 l 1095 630 l 1019 420 l 959 154 q 951 133 954 148 q 931 97 944 104 q 906 96 914 96 q 878 114 884 96 q 860 150 878 133 q 827 172 837 166 q 800 172 808 172 q 777 178 788 172 q 696 322 744 231 q 619 469 657 395 q 594 473 608 487 l 574 441 l 448 181 q 434 172 440 176 q 421 173 428 167 q 416 187 416 177 q 419 212 419 205 q 405 220 419 222 q 365 174 399 195 q 326 130 331 154 q 292 125 314 137 q 268 113 270 113 q 249 133 255 113 q 235 167 249 150 q 213 198 215 194 q 97 526 159 342 q -8 857 43 691 q -13 890 -11 872 q -15 920 -15 908 q -8 957 -15 943 q 7 950 1 959 q 18 939 14 940 l 44 939 q 96 829 50 933 q 135 766 112 793 q 143 780 143 769 q 139 798 143 786 q 135 818 135 811 q 119 873 123 855 q 110 932 110 910 q 112 957 110 940 q 137 963 119 972 q 159 937 148 941 q 174 936 167 934 q 190 941 182 939 q 205 905 193 939 q 229 882 213 882 q 244 907 240 900 q 266 925 254 922 q 279 890 274 901 q 293 872 284 879 q 309 877 301 870 q 325 890 316 883 q 353 811 339 866 q 376 737 367 757 q 392 745 387 736 q 402 765 396 755 q 435 830 411 795 q 499 939 491 912 q 519 968 512 958 q 549 988 533 987 q 572 982 559 993 q 596 979 586 972 q 627 1008 601 981 q 666 1020 646 1027 q 756 889 715 966 q 820 746 781 843 q 828 741 823 746 q 837 737 833 736 q 860 801 850 757 q 872 855 869 845 q 894 957 886 924 q 950 1038 909 1016 q 957 1031 955 1034 "},"$":{"x_min":22.765625,"x_max":383,"ha":391,"o":"m 268 995 q 267 970 272 986 q 263 952 263 953 q 276 933 263 938 q 327 933 301 933 q 373 923 354 933 q 368 906 368 917 q 369 891 369 895 q 357 872 369 876 q 364 847 359 859 q 351 839 364 839 q 312 825 321 841 q 280 789 312 789 q 253 789 261 789 q 233 780 238 789 q 258 752 233 762 q 286 738 283 741 q 338 711 290 736 q 376 668 369 694 q 380 652 378 663 q 383 630 383 641 q 358 556 383 591 q 327 522 339 551 q 294 484 314 492 q 252 467 286 477 q 207 413 200 452 q 196 404 201 404 q 167 415 181 409 q 149 426 151 427 q 121 409 140 412 q 116 422 116 415 q 120 445 120 437 q 114 458 120 452 q 68 498 107 472 q 44 549 37 517 q 28 565 32 561 q 24 583 19 574 q 46 599 35 591 q 43 620 49 608 q 37 636 37 633 q 44 647 37 641 q 114 627 94 631 q 189 618 156 618 q 194 631 197 626 q 122 665 182 640 q 40 761 40 700 q 96 876 40 817 q 158 930 118 898 q 171 962 167 941 q 177 995 174 983 q 184 1006 179 1007 q 194 1006 189 1006 q 204 981 200 991 q 222 972 208 972 q 236 994 226 974 q 253 1014 246 1014 q 268 995 260 1014 "},"\\":{"x_min":18.75,"x_max":722.359375,"ha":728,"o":"m 245 1008 q 243 991 243 1002 q 248 963 243 981 q 252 937 253 945 l 245 938 q 213 971 232 949 q 152 1014 178 1014 q 158 980 158 991 q 151 965 158 970 q 134 971 142 963 q 117 983 122 984 q 96 986 112 983 q 77 990 80 990 q 59 978 65 990 q 71 943 62 969 q 80 902 80 917 q 43 916 70 896 q 18 923 28 927 q 63 831 25 887 q 101 777 82 803 q 317 271 229 535 q 343 217 335 235 q 381 170 360 184 q 399 138 391 150 q 420 119 406 125 q 465 141 441 119 q 504 175 496 171 q 535 148 519 162 q 572 132 552 135 q 577 148 577 139 q 573 170 577 155 q 570 188 570 185 q 585 206 570 200 q 607 218 598 202 q 627 231 616 234 q 668 189 646 206 q 722 159 691 173 q 693 244 707 200 q 721 271 721 249 q 712 287 721 278 l 583 528 q 485 749 529 630 q 413 983 448 851 q 402 990 409 990 q 384 983 398 990 q 362 952 373 967 q 328 938 347 935 q 305 973 312 962 q 286 1009 289 997 q 267 1018 279 1018 q 245 1008 255 1018 "},"-":{"x_min":24.65625,"x_max":531,"ha":545,"o":"m 518 702 q 531 664 531 693 q 528 629 528 639 q 492 586 510 621 q 469 557 481 565 q 481 542 468 547 q 487 525 495 537 q 464 507 481 515 q 440 489 446 498 q 453 471 446 478 q 451 458 459 465 q 408 444 431 446 q 363 442 385 442 q 323 442 340 442 q 279 439 306 442 q 192 428 253 436 q 77 414 131 421 q 47 418 62 415 q 24 439 31 423 q 37 463 23 450 q 52 486 52 476 q 47 500 52 491 q 49 517 45 509 q 64 528 53 525 q 100 539 94 528 q 91 582 95 560 q 102 590 94 585 q 117 608 117 601 q 114 619 117 615 q 105 669 108 653 q 94 695 102 685 q 100 702 94 700 l 257 702 l 518 702 "},"Q":{"x_min":12,"x_max":930.578125,"ha":932,"o":"m 496 989 q 711 941 619 989 q 861 780 817 887 q 860 765 860 769 q 887 671 860 730 q 915 572 915 611 q 915 554 915 567 q 909 518 915 536 q 894 484 898 495 q 854 446 864 457 q 824 403 834 425 q 854 332 831 374 q 890 260 884 278 q 915 204 897 242 q 930 170 927 176 q 898 159 915 159 q 849 178 879 159 q 798 204 813 201 q 804 177 793 193 q 810 152 814 161 q 784 154 795 149 q 746 179 758 172 q 744 161 741 175 q 748 145 748 147 q 743 139 748 140 q 726 143 739 138 q 680 183 695 171 q 625 203 650 207 q 523 179 578 189 q 420 170 469 170 q 263 198 331 170 q 146 271 195 226 q 74 382 89 324 q 25 465 31 454 q 12 520 12 495 q 32 578 12 552 l 22 621 q 84 779 58 726 q 186 915 126 862 q 231 929 207 911 q 273 954 260 952 q 468 1007 360 1007 l 496 989 m 402 740 q 354 663 375 710 q 316 571 334 615 q 314 557 314 560 q 330 519 314 540 q 360 481 353 489 q 380 468 367 474 q 416 463 393 463 q 459 468 425 463 q 508 473 492 473 q 560 524 533 491 q 607 583 579 547 l 607 607 q 578 661 596 635 q 541 710 568 678 q 473 725 518 710 q 402 740 428 740 "},"M":{"x_min":27,"x_max":1158,"ha":1154,"o":"m 279 978 q 320 950 293 979 q 345 935 335 935 q 366 946 356 935 q 391 950 376 940 q 417 954 406 960 q 561 657 489 806 q 576 648 567 648 q 591 654 584 648 q 645 757 616 692 q 675 822 660 789 q 693 822 685 826 q 697 796 696 807 q 707 781 699 785 q 727 797 719 782 q 736 819 729 800 q 744 883 744 837 q 765 947 744 928 q 765 978 765 962 q 775 1003 765 994 q 802 996 788 1004 q 823 988 816 988 q 841 967 833 975 q 858 960 849 960 q 873 966 866 960 q 887 979 879 972 q 905 979 895 986 q 915 963 907 976 q 932 948 924 950 q 966 953 955 953 q 982 948 974 953 q 1019 849 1008 919 q 1035 767 1031 779 l 1076 585 q 1115 482 1099 540 q 1140 373 1128 437 q 1123 372 1133 365 q 1111 379 1113 379 q 1090 418 1098 390 q 1077 452 1081 447 q 1026 574 1051 512 q 1019 567 1023 574 q 1019 555 1015 561 q 1026 523 1024 543 q 1031 483 1028 502 q 1091 329 1079 359 q 1158 176 1115 269 q 1146 157 1158 170 q 1140 132 1134 144 q 1096 150 1125 150 q 1066 150 1081 150 q 1032 134 1061 137 q 1007 107 1004 132 q 975 111 993 107 q 939 119 956 115 l 838 224 l 785 336 q 775 338 778 338 q 771 339 773 338 q 729 263 759 322 q 636 151 685 180 q 644 124 633 141 q 651 98 655 107 q 552 176 603 126 q 399 336 475 255 q 381 327 387 336 q 370 304 375 319 q 346 230 362 272 q 317 158 320 165 q 278 130 298 134 q 268 163 271 136 q 244 186 264 190 q 161 92 202 139 q 143 104 149 92 q 134 129 138 116 q 136 152 138 148 q 116 161 128 161 q 74 136 105 161 q 51 124 59 124 q 27 158 36 124 q 41 237 27 192 q 85 370 83 362 q 81 404 81 381 q 96 478 81 431 q 115 539 112 525 q 150 709 128 578 q 199 872 168 815 q 222 950 202 897 q 237 997 236 985 q 248 1006 240 1004 q 264 1008 256 1007 l 279 978 "},"C":{"x_min":11,"x_max":714.328125,"ha":721,"o":"m 548 957 q 481 907 514 932 q 506 902 492 902 q 532 904 514 902 q 556 907 549 907 q 528 884 552 897 q 505 853 505 870 q 528 850 513 850 q 566 856 540 850 q 607 862 592 862 q 609 840 609 859 q 615 830 609 834 q 649 830 631 830 q 620 808 645 815 q 588 787 595 801 q 599 774 588 777 q 614 768 611 770 q 609 754 615 763 q 611 738 603 744 q 631 734 621 734 q 662 736 651 736 q 681 732 673 736 q 663 720 678 726 q 649 701 649 714 q 682 691 655 694 q 714 680 708 689 q 668 668 700 668 q 622 661 637 668 q 534 641 607 654 q 404 558 433 623 q 382 537 389 545 q 372 509 372 523 q 376 494 372 502 q 505 394 418 426 q 662 354 525 387 q 647 339 655 344 q 645 326 639 334 q 672 311 655 316 q 704 301 688 305 q 670 297 684 298 q 647 285 655 296 q 639 262 653 272 q 627 242 626 251 q 607 238 616 238 q 584 239 596 238 q 562 242 573 240 q 532 231 543 242 q 568 201 543 211 q 617 183 593 192 q 611 168 619 175 q 596 160 609 167 q 536 146 556 151 q 503 132 515 142 l 533 91 l 526 85 q 437 101 481 85 q 303 171 422 107 q 260 200 290 178 q 182 239 212 235 q 115 298 148 264 q 19 416 105 311 q 11 466 11 441 q 23 550 11 498 q 36 605 35 601 q 77 687 64 661 q 130 765 103 737 q 174 802 139 769 q 223 828 201 828 q 333 910 280 878 q 450 961 386 941 q 429 948 439 957 q 418 929 419 940 l 424 923 q 489 945 454 933 q 547 963 524 958 l 548 957 "},"[":{"x_min":22,"x_max":540.078125,"ha":544,"o":"m 191 933 q 216 959 202 937 q 244 980 229 980 q 252 964 250 971 q 262 955 255 958 q 289 971 271 960 q 318 982 307 982 q 334 979 329 982 q 365 941 349 960 l 492 955 q 504 937 508 946 q 476 922 489 930 q 459 901 463 914 q 474 893 461 900 q 488 878 487 886 q 461 862 487 875 q 446 837 444 854 q 501 819 459 828 q 538 808 521 815 l 540 801 q 512 793 534 797 q 481 778 489 789 q 487 753 487 764 q 472 734 487 737 q 412 725 461 730 q 348 698 364 721 q 329 530 338 618 q 321 375 321 443 l 329 364 q 424 364 376 364 q 514 348 474 364 q 483 327 510 332 q 449 321 457 323 q 435 311 442 319 q 476 288 444 294 q 516 276 508 281 q 504 258 518 272 q 472 252 500 252 q 443 229 443 252 q 462 211 453 219 q 446 197 457 201 q 424 193 435 193 q 389 193 401 193 q 356 184 370 193 q 372 160 344 166 q 417 155 402 160 q 440 130 432 151 l 433 125 q 274 125 380 125 q 112 125 168 125 q 77 132 87 129 q 50 157 56 139 q 50 175 46 165 q 58 194 55 184 l 58 452 q 55 510 55 475 q 55 577 55 546 l 55 618 q 52 683 55 658 q 43 734 49 708 q 45 761 45 743 q 42 811 45 789 q 33 894 33 887 q 27 918 33 900 q 22 940 22 936 q 33 961 22 955 q 62 967 45 967 q 90 967 75 967 q 115 983 108 969 q 124 986 119 986 q 130 986 128 986 q 171 957 149 986 q 191 933 184 937 "},"L":{"x_min":1.109375,"x_max":593.578125,"ha":599,"o":"m 145 891 q 152 887 148 888 q 157 888 156 886 q 170 908 163 898 q 190 915 176 919 q 247 895 221 915 q 260 867 255 875 q 275 862 265 859 q 305 882 281 882 q 318 880 314 882 l 320 866 l 320 577 q 320 542 320 560 q 318 508 320 524 q 318 492 318 499 q 313 466 314 474 q 343 455 325 455 q 377 461 355 455 q 405 468 398 468 q 552 494 479 480 l 569 494 q 585 485 582 494 q 553 455 581 466 q 520 438 525 445 q 537 428 526 428 q 559 430 552 430 q 575 423 570 430 q 552 397 574 409 q 529 378 529 385 q 537 365 529 373 l 558 365 q 593 351 589 365 q 518 330 571 330 q 446 317 464 330 q 453 300 445 312 q 501 300 475 300 q 543 291 526 300 q 534 278 544 283 q 509 270 524 273 q 476 264 494 266 q 446 250 458 261 q 477 235 452 235 q 509 228 502 235 q 433 174 475 195 q 348 154 392 154 q 294 145 321 148 q 235 143 268 143 q 156 148 189 143 q 148 165 155 149 q 129 181 141 181 q 93 172 116 181 q 58 164 70 164 q 34 171 44 164 l 34 200 q 31 246 34 232 q 12 279 29 261 q 12 397 12 317 q 12 516 12 476 q 12 588 12 560 q 24 652 13 616 q 17 724 24 684 q 1 845 1 820 q 24 857 16 841 q 42 888 33 873 q 44 932 42 915 q 67 954 47 950 q 84 960 74 957 q 99 964 93 964 q 116 955 108 964 q 133 924 118 952 q 145 891 144 905 "},"!":{"x_min":24.828125,"x_max":372,"ha":388,"o":"m 250 1024 q 268 1011 258 1011 q 288 1022 275 1011 q 310 1033 302 1033 q 328 1022 318 1033 q 350 1022 339 1022 q 367 1015 362 1022 q 355 976 369 999 q 347 934 341 952 q 357 872 357 905 q 353 822 357 855 q 350 770 350 788 l 350 547 q 338 478 350 506 q 299 427 326 449 q 333 356 315 397 q 366 286 358 304 q 372 259 372 269 q 365 240 372 247 q 309 221 332 229 q 268 202 285 213 q 250 163 258 193 q 226 127 242 134 q 205 111 219 126 q 179 104 192 95 q 154 145 179 124 q 118 183 124 170 l 39 288 q 53 317 33 304 q 68 333 65 326 q 82 519 82 417 q 67 724 82 623 q 24 926 53 826 q 32 958 28 933 q 47 991 35 984 q 74 974 56 987 q 103 961 92 961 q 120 965 112 961 q 178 987 131 981 q 226 1024 226 992 q 224 1039 226 1034 q 231 1048 226 1046 q 243 1051 236 1049 l 250 1024 "}," ":{"x_min":0,"x_max":0,"ha":419},"X":{"x_min":-30,"x_max":893.640625,"ha":882,"o":"m 689 1008 q 684 996 690 1005 q 678 984 678 987 q 687 977 678 978 q 704 999 690 992 q 734 1014 719 1006 q 748 1014 740 1014 q 761 1006 759 1014 q 754 985 761 1001 q 752 959 748 969 q 767 947 756 955 q 779 931 778 938 q 750 879 765 907 q 731 829 736 852 q 753 834 743 822 q 774 858 763 845 q 801 880 786 868 q 831 892 816 892 q 849 887 838 892 q 879 865 870 872 q 891 834 898 849 q 667 580 778 706 l 671 556 l 823 374 q 831 357 827 366 q 834 338 836 348 q 814 325 822 331 q 807 312 807 320 q 812 297 807 305 q 817 280 817 289 q 812 259 817 269 q 797 236 807 249 q 769 228 786 228 q 742 232 756 228 q 713 242 727 237 q 707 226 707 237 q 709 214 707 225 q 711 198 712 202 q 680 187 697 200 q 656 175 663 175 q 640 182 649 175 q 604 211 623 182 q 581 232 593 229 q 575 219 575 225 q 581 200 575 215 q 581 178 587 186 q 567 168 573 172 q 555 165 561 165 l 445 312 q 430 319 441 319 q 416 313 422 319 l 273 137 q 258 160 268 152 q 227 169 245 173 q 208 175 213 173 q 177 181 189 181 q 151 175 162 181 q 139 201 139 183 q 141 215 139 207 q 149 226 147 222 q 151 236 152 230 q 137 240 143 240 q 104 218 126 240 q 63 204 81 197 l 50 207 q 53 222 53 212 q 45 252 53 233 q 37 281 37 271 q 43 300 37 289 l 168 488 q 202 537 185 512 q 216 587 219 563 q 73 777 168 667 q -23 886 24 831 q -30 905 -30 893 q -4 900 -17 904 q 20 893 9 897 q 50 866 41 874 q 84 850 69 850 q 92 870 87 862 q 108 870 98 877 q 126 859 117 865 q 143 855 134 852 q 142 874 145 861 q 139 891 139 887 q 149 907 139 901 q 174 896 159 907 q 194 886 189 886 q 207 892 201 886 q 203 922 203 912 q 209 935 203 930 q 227 947 220 934 q 247 976 243 976 q 265 967 256 976 q 286 947 275 956 q 310 940 298 937 q 317 954 316 942 q 327 970 318 966 l 339 966 q 441 830 389 898 l 452 833 q 517 918 474 852 q 649 1022 587 1022 q 682 1018 663 1022 l 689 1008 "},"P":{"x_min":3,"x_max":701,"ha":717,"o":"m 189 983 q 209 981 195 985 q 227 978 222 978 q 242 985 236 978 q 242 1007 242 999 q 252 1018 243 1015 q 271 1012 262 1019 q 290 999 280 1006 q 471 971 382 999 q 476 953 479 965 q 554 907 498 937 q 673 815 639 860 q 690 729 675 805 q 701 640 701 672 q 695 589 701 613 q 676 542 690 565 q 646 479 661 531 q 624 442 639 454 q 539 374 596 400 q 380 297 385 303 q 385 238 380 274 q 398 137 398 157 q 386 130 393 136 q 374 125 380 124 q 359 148 367 136 q 339 160 351 160 q 325 155 333 160 q 310 158 320 151 q 296 162 301 164 q 283 138 291 158 q 258 124 274 118 q 240 153 250 137 q 214 176 231 170 q 194 158 206 175 q 167 147 182 140 q 149 170 156 168 q 117 151 137 170 q 82 139 98 133 q 81 161 81 142 q 71 178 81 172 q 47 162 57 181 q 26 144 38 143 q 46 258 35 201 q 57 378 57 328 q 44 459 44 411 q 44 552 44 507 q 35 622 44 574 q 26 683 26 669 q 32 728 26 708 q 3 968 17 847 l 3 1006 q 54 1006 28 1006 q 82 957 71 994 q 95 922 88 933 q 105 947 105 932 q 102 979 102 968 q 106 996 102 990 q 119 978 110 993 q 141 963 129 963 q 151 997 151 973 q 155 1033 151 1026 q 173 1009 164 1028 q 189 983 182 990 m 385 717 q 363 724 372 724 q 349 711 354 724 q 345 676 345 699 q 349 627 345 660 q 354 582 354 595 q 366 577 359 577 q 385 584 373 577 q 402 593 398 592 q 430 611 415 601 q 457 660 464 635 l 385 717 "},"%":{"x_min":23,"x_max":1278,"ha":1283,"o":"m 351 969 q 430 955 383 972 q 506 928 494 931 q 567 861 547 905 q 587 766 587 817 q 600 759 597 759 q 650 837 623 789 q 697 917 688 904 q 702 940 698 932 q 714 954 706 948 q 727 935 724 954 q 743 916 729 916 q 765 950 751 921 q 792 979 778 979 q 809 972 799 979 q 816 945 807 949 q 841 960 831 955 q 864 965 852 966 q 868 946 866 954 q 876 937 869 939 q 899 954 888 935 q 924 967 910 973 q 923 947 926 962 q 920 931 920 932 q 929 916 920 921 q 950 923 937 914 q 968 930 963 931 l 968 900 q 877 740 944 863 q 822 643 843 678 q 830 628 819 631 q 957 686 892 657 q 1022 662 989 674 q 1039 666 1029 662 q 1154 656 1115 666 q 1244 593 1215 641 q 1252 561 1249 581 q 1255 525 1255 540 l 1255 503 q 1255 470 1255 485 q 1264 436 1255 455 q 1263 422 1263 430 q 1270 389 1263 409 q 1278 361 1278 369 q 1272 338 1278 350 l 1223 240 q 1147 190 1182 212 q 1068 142 1094 158 q 1035 151 1054 137 q 1008 165 1016 165 q 996 162 1000 165 q 963 158 986 162 q 926 154 940 154 q 899 158 909 154 q 883 173 890 163 q 873 194 876 179 q 861 212 871 209 q 849 207 856 207 q 828 216 842 207 q 808 223 815 225 q 752 272 796 236 q 705 327 717 301 l 697 323 q 657 263 686 301 q 616 204 627 225 q 593 223 601 204 q 572 243 585 243 q 544 191 567 238 q 525 162 535 172 q 488 168 510 159 q 460 178 465 178 q 430 159 442 178 q 413 173 419 164 q 407 194 407 183 q 412 219 407 203 q 424 254 418 234 q 431 281 433 270 q 420 286 427 288 q 351 169 385 227 q 341 173 344 172 q 324 179 330 182 l 324 194 q 382 316 351 244 q 436 441 408 379 q 429 459 436 455 q 387 450 404 454 q 358 446 370 446 q 303 470 324 446 l 269 470 q 193 478 223 470 q 148 514 163 486 q 90 574 133 542 q 34 625 47 606 q 28 695 34 645 q 23 771 23 745 q 33 846 23 816 q 76 899 44 877 q 110 914 92 902 q 163 951 159 949 q 239 980 178 960 q 285 999 263 988 q 321 986 304 1006 q 351 969 337 966 m 296 800 q 272 792 283 795 q 258 780 262 790 q 256 746 259 767 q 253 720 253 725 q 265 686 253 699 q 293 677 278 677 q 347 699 322 677 q 372 722 363 708 q 375 752 381 736 q 296 800 353 800 m 970 493 q 953 449 953 481 q 954 420 953 434 q 957 394 955 406 q 978 379 965 383 q 1008 375 992 375 q 1050 375 1037 375 q 1064 391 1064 380 q 1056 412 1064 397 q 1048 434 1048 427 q 1012 469 1023 459 q 970 493 991 488 "},"T":{"x_min":-6,"x_max":738.6875,"ha":722,"o":"m 687 984 q 674 952 680 968 q 683 941 674 946 l 701 939 q 695 919 702 929 q 676 901 689 908 q 651 887 664 894 q 670 874 651 874 q 689 867 689 874 q 682 852 689 864 q 620 825 667 825 q 562 815 574 825 q 565 805 560 811 q 577 800 569 800 q 655 793 614 800 q 736 779 697 786 q 736 761 740 775 q 708 748 723 751 q 668 745 693 745 l 627 745 q 589 742 601 745 q 580 732 582 738 q 585 724 578 726 q 610 713 590 718 q 635 698 630 708 q 605 682 622 686 q 563 678 588 678 q 515 678 550 678 q 479 678 480 678 q 464 610 464 659 q 459 551 464 561 q 464 500 464 529 q 464 444 464 472 q 464 368 464 419 q 464 289 464 316 q 464 252 464 278 q 464 214 464 226 q 449 196 464 200 q 432 189 435 193 q 404 139 413 155 q 378 109 394 123 q 355 131 363 115 q 340 172 347 147 q 295 215 318 200 q 245 230 272 230 q 228 225 236 228 q 198 219 208 216 q 179 243 183 236 q 177 271 170 258 l 177 484 q 177 564 177 523 q 165 696 165 683 l 156 703 q 105 699 137 703 q 65 696 72 696 q 25 700 42 696 q -5 719 8 705 q 4 740 -9 732 q 20 750 18 747 q 18 780 18 771 q 39 806 18 806 q 68 819 65 813 q 33 839 61 833 q -2 857 5 844 q 7 883 -7 869 q 23 903 23 896 q 19 915 23 911 q 15 924 16 919 q 14 932 14 929 q 21 958 14 940 q 29 984 29 976 l 39 989 l 434 989 l 455 989 l 476 989 q 558 989 533 989 q 620 997 584 989 q 661 993 645 993 q 687 984 676 993 "},"a":{"x_min":18,"x_max":971,"ha":994,"o":"m 558 1004 q 552 984 555 997 q 551 961 549 972 q 575 950 559 952 q 604 947 590 948 q 623 961 611 961 q 641 955 628 961 q 660 950 653 950 q 677 962 670 950 q 692 968 683 968 q 707 963 701 968 q 741 923 728 949 q 771 832 750 906 q 822 623 792 758 q 868 405 841 539 q 905 295 889 341 q 971 112 966 125 q 961 90 971 92 q 915 105 942 83 q 880 128 889 128 q 852 104 865 128 q 828 126 838 106 q 805 148 818 147 q 799 136 799 143 q 801 123 799 132 q 799 107 803 114 q 763 97 781 101 q 748 102 756 97 q 726 130 740 107 q 697 155 713 152 q 690 139 690 151 q 693 114 693 121 q 689 108 693 110 q 677 110 686 105 q 649 182 662 129 q 615 257 636 236 q 416 247 507 257 q 382 159 409 240 q 349 110 370 126 q 328 101 341 101 q 299 106 309 106 q 279 97 290 106 q 264 104 272 95 q 256 114 257 112 q 160 49 196 90 l 151 48 q 154 87 154 74 q 150 104 154 97 q 129 100 135 100 q 120 107 124 100 q 124 125 119 114 q 130 141 130 137 q 123 154 130 148 q 98 136 110 150 q 60 101 69 105 l 18 101 q 33 144 18 121 q 79 209 56 176 q 130 266 113 222 q 160 340 152 329 q 182 452 171 395 q 295 808 250 619 q 387 983 329 897 q 408 980 394 984 q 428 976 422 976 q 445 995 435 980 q 466 1005 454 1011 q 475 986 470 1001 q 490 969 479 972 q 514 995 500 972 q 537 1019 528 1019 q 558 1004 547 1019 m 543 644 q 522 607 532 632 q 495 537 509 572 q 494 518 491 529 q 506 503 498 507 q 534 503 515 503 q 555 503 552 503 q 592 512 579 503 q 585 559 589 539 q 570 602 581 579 q 560 630 564 619 q 543 644 556 641 "},"N":{"x_min":15,"x_max":946,"ha":957,"o":"m 174 950 l 198 950 q 237 956 222 950 q 258 982 253 962 q 298 969 283 986 q 341 904 320 936 l 588 657 q 633 711 633 665 q 633 800 633 757 q 641 831 633 811 q 650 858 650 851 q 643 881 650 869 q 629 847 633 872 q 622 811 626 821 q 611 857 611 828 q 614 892 611 871 q 622 932 618 913 q 633 938 630 938 q 647 914 639 925 q 661 937 652 917 q 687 950 671 957 q 710 946 700 940 q 722 964 713 948 q 744 980 732 980 q 751 961 751 974 q 759 928 751 935 q 772 937 766 929 q 785 956 778 946 q 817 973 802 967 q 849 980 831 980 q 880 971 864 980 q 902 990 886 971 q 918 1000 910 1000 q 933 994 927 1000 q 941 955 937 978 q 946 914 946 933 q 929 840 929 888 q 929 757 929 792 l 929 704 q 929 550 929 658 q 929 409 929 442 q 929 349 929 375 q 928 293 929 322 q 936 232 936 274 q 940 176 936 190 q 922 160 935 160 q 892 170 901 170 q 879 151 883 170 q 852 146 872 149 q 824 139 832 144 q 793 146 812 135 q 771 157 775 157 q 755 147 763 157 l 706 189 q 685 174 683 189 q 675 144 688 159 q 601 186 641 149 q 536 246 543 242 q 463 322 501 284 q 389 386 426 361 q 373 382 378 389 q 367 364 369 375 q 365 341 365 353 q 365 324 365 329 q 362 254 365 275 q 343 213 359 232 q 322 216 336 210 q 305 223 307 223 q 295 204 295 223 q 245 140 295 170 q 207 106 215 124 q 181 115 192 106 q 143 151 162 133 q 107 159 129 159 q 80 157 95 159 q 64 156 65 156 q 42 159 56 156 l 33 197 q 33 351 33 249 q 33 486 33 453 l 33 502 q 33 556 33 528 q 31 611 33 585 q 24 651 24 632 q 24 695 24 670 q 24 745 24 711 q 24 795 24 778 q 24 819 24 807 q 23 844 23 836 q 19 889 23 860 q 15 932 15 918 q 19 960 15 944 q 30 968 23 968 q 43 961 35 968 q 54 955 52 955 q 105 968 79 961 q 140 1005 133 980 q 156 979 150 1001 q 174 950 163 957 "},"2":{"x_min":24.5,"x_max":766.5,"ha":722,"o":"m 431 963 q 529 903 487 955 q 554 816 548 878 q 576 731 561 755 q 578 715 578 723 q 578 699 578 707 q 530 538 578 627 q 446 388 488 463 q 458 372 442 378 l 755 372 q 766 370 763 378 q 738 342 763 353 q 707 324 713 331 q 716 307 712 313 q 717 295 721 301 q 686 278 710 285 q 657 256 661 272 q 676 246 660 249 q 684 227 693 242 q 640 213 672 217 q 595 201 608 209 q 611 182 595 188 q 629 167 627 176 q 589 152 624 163 q 571 119 564 145 q 535 105 553 107 q 477 104 516 104 q 328 104 432 104 q 215 104 223 104 q 93 104 155 104 q 68 108 78 104 q 54 126 57 113 q 46 147 58 138 q 24 162 35 155 l 215 481 q 198 507 218 501 q 163 519 179 513 q 122 590 129 548 q 68 661 83 617 q 53 763 53 705 q 55 821 53 796 q 59 860 58 845 q 72 866 65 866 q 95 863 88 863 q 114 878 108 863 q 182 955 148 916 q 268 998 227 998 q 305 991 282 998 q 409 961 356 976 q 431 963 415 961 m 255 718 q 251 693 255 709 q 248 674 248 677 q 264 646 248 656 q 288 637 280 637 q 303 644 296 637 q 325 673 307 652 q 343 709 343 695 q 314 723 329 717 q 284 730 299 730 q 255 718 267 730 "},"j":{"x_min":2.796875,"x_max":589,"ha":623,"o":"m 273 962 q 279 935 279 955 q 284 907 279 915 q 301 862 294 878 q 321 843 309 847 l 328 850 q 330 876 330 866 q 330 903 330 884 q 330 929 330 921 q 332 959 330 950 q 344 959 339 961 q 362 950 350 957 q 372 896 372 934 q 386 841 372 857 q 397 846 393 840 q 401 857 400 854 l 411 910 q 433 894 419 910 q 457 886 446 879 q 472 914 465 903 q 491 923 478 926 q 527 937 514 912 q 533 969 529 959 q 548 989 538 979 q 571 989 559 989 q 585 976 582 989 q 587 942 587 964 q 587 908 587 921 q 587 852 587 890 q 587 797 587 815 q 589 732 589 766 q 589 659 589 698 q 589 542 589 612 q 589 351 589 386 q 532 251 570 336 q 460 163 505 188 q 426 143 446 148 q 378 139 406 139 l 344 139 q 298 131 323 134 q 250 129 273 129 q 145 145 190 129 q 65 204 99 162 q 42 216 54 209 q 27 234 29 223 q 48 247 29 238 q 62 272 67 255 q 53 297 53 283 q 63 330 53 311 q 45 378 51 340 q 12 422 39 416 q 2 449 2 433 q 6 469 2 460 q 31 479 17 479 q 67 466 43 479 q 97 452 91 454 q 291 408 194 430 q 298 426 298 415 q 292 447 298 431 q 290 473 287 463 q 272 730 290 595 q 231 977 261 814 l 239 993 q 260 984 251 993 q 273 962 269 975 "},"Z":{"x_min":-39.546875,"x_max":903.640625,"ha":886,"o":"m 903 984 l 894 954 q 800 838 847 902 q 655 634 789 824 q 597 544 647 617 q 551 447 559 488 q 576 436 563 438 q 601 434 589 434 q 636 438 613 434 q 672 443 660 443 q 757 443 696 443 q 821 443 817 443 q 846 443 834 443 q 870 443 862 443 q 858 428 868 432 q 838 420 847 424 q 709 388 772 403 q 772 377 728 377 q 836 365 817 377 l 838 356 q 729 324 783 340 q 790 311 745 316 q 857 293 835 305 q 851 281 858 286 q 805 272 845 277 q 694 268 766 268 q 691 252 684 260 q 737 245 709 245 q 768 245 752 245 q 798 240 783 245 q 809 233 802 238 q 817 225 815 229 q 786 195 815 210 q 758 167 758 179 q 764 148 758 161 q 728 137 751 137 q 695 141 717 137 q 662 145 673 145 q 635 138 647 145 q 590 138 621 138 q 541 138 558 138 q 493 140 515 138 q 451 150 470 142 q 397 153 428 153 q 336 153 366 153 q 205 153 295 153 q 111 153 114 153 q 72 170 106 157 q 38 202 38 182 l 40 214 q 192 438 115 326 q 305 688 247 563 q 305 705 309 696 q 294 717 302 714 q 124 675 211 704 q -39 614 96 666 q -31 641 -40 623 q -23 666 -23 659 q -38 685 -23 677 l -38 693 q 0 722 -24 709 q 67 765 58 759 q 59 779 67 770 q 58 793 51 788 q 185 836 121 814 q 183 841 186 839 q 172 845 179 843 q 158 848 164 848 q 120 843 145 848 q 85 838 94 838 q 49 849 65 838 q 78 868 51 856 q 99 902 105 881 q 95 925 87 914 q 117 930 99 928 q 135 947 135 932 q 99 968 110 961 q 86 1004 79 982 l 101 998 l 360 998 l 552 998 l 782 998 q 820 970 801 978 q 836 979 828 970 q 853 998 843 988 q 872 1011 862 1009 q 895 999 885 1014 q 903 984 898 995 "},"u":{"x_min":9.75,"x_max":791,"ha":807,"o":"m 704 1059 q 710 1017 706 1050 q 723 970 715 984 q 749 970 731 967 q 771 973 768 973 q 791 959 785 973 l 791 719 q 791 612 791 683 q 791 505 791 541 l 791 202 q 756 150 756 187 q 759 127 756 142 q 761 109 762 111 q 751 106 757 103 q 736 113 745 109 q 719 142 732 127 q 694 172 706 158 q 687 160 689 170 q 682 148 686 151 q 634 191 661 148 q 602 216 620 213 q 594 170 597 199 q 592 118 592 142 l 592 85 q 578 84 579 81 q 570 102 574 88 q 558 120 566 116 q 539 118 550 123 q 527 99 529 114 q 518 69 527 75 q 495 87 502 69 q 484 107 487 105 q 473 164 478 124 q 461 223 469 205 q 407 206 434 223 q 322 157 326 158 q 187 175 248 157 q 73 238 126 194 q 23 308 36 269 q 9 399 9 346 q 15 482 9 425 q 21 569 21 539 l 21 587 q 18 616 21 596 q 18 692 18 656 q 18 794 18 726 q 18 895 18 862 q 18 931 18 916 q 19 980 18 945 q 35 987 26 987 q 52 983 41 987 q 68 979 63 979 q 86 987 78 979 q 110 902 97 967 q 127 848 119 867 q 142 885 136 858 q 149 916 147 913 q 166 977 157 945 q 195 1030 176 1009 l 209 1028 l 209 989 q 211 919 209 942 q 223 870 213 897 q 246 948 240 891 q 267 1027 253 1005 q 286 1038 280 1035 q 301 1038 293 1041 l 306 1031 q 304 998 304 1009 q 299 938 299 952 q 301 908 299 917 l 309 902 l 365 945 q 364 919 369 937 q 361 894 359 901 q 343 649 361 845 q 335 502 335 559 q 380 480 351 487 q 437 469 409 474 q 462 485 457 471 q 468 517 468 499 q 458 569 468 534 q 448 621 448 603 q 448 730 448 656 q 448 841 448 804 q 448 910 448 878 q 461 987 448 942 q 477 999 465 998 q 494 999 489 1000 q 500 948 500 987 q 512 893 500 910 q 524 904 520 893 q 532 928 528 915 q 540 983 532 961 q 571 1018 548 1005 q 629 996 596 1013 q 631 938 629 956 q 645 897 633 920 q 659 917 659 898 q 663 948 659 944 q 671 1010 668 999 q 704 1059 680 1043 "},"1":{"x_min":14.46875,"x_max":489,"ha":501,"o":"m 416 960 q 443 980 429 970 q 443 960 449 973 q 443 940 438 948 q 472 916 447 929 q 489 901 484 909 q 480 769 489 844 q 460 547 460 592 q 460 396 460 498 q 460 247 460 294 q 430 237 448 237 q 410 238 420 237 q 390 242 399 240 q 367 234 373 242 q 360 211 361 226 q 348 163 348 198 q 348 128 348 139 q 342 97 348 108 q 316 86 336 86 q 299 108 311 88 q 271 126 288 128 q 236 162 246 126 q 213 207 227 198 q 189 189 201 207 q 168 172 178 172 q 152 177 161 172 l 144 194 q 141 228 141 216 l 141 257 q 138 298 141 282 q 117 327 134 314 l 117 546 q 118 599 117 576 q 128 687 128 682 q 125 721 128 699 q 92 730 114 730 q 66 730 74 730 q 33 750 44 730 q 26 778 40 763 q 14 803 12 792 q 278 925 146 863 q 327 952 301 925 q 371 993 361 988 q 391 975 387 996 q 402 955 395 955 q 416 960 409 955 "},"k":{"x_min":24,"x_max":760.296875,"ha":767,"o":"m 558 1001 q 561 982 561 989 q 556 956 561 975 q 552 928 552 936 q 563 902 552 910 q 604 912 583 912 q 652 895 633 912 q 674 897 667 897 q 698 887 689 897 q 692 854 694 870 q 697 842 692 847 q 708 850 702 846 q 728 859 720 859 q 745 849 739 859 l 748 845 q 675 725 727 804 q 603 606 624 646 l 603 571 l 735 376 q 754 347 748 357 q 760 329 760 338 q 750 311 760 320 q 724 271 732 283 q 687 245 708 249 q 658 196 685 229 q 640 166 643 176 q 614 159 630 168 q 592 150 598 150 q 573 162 584 150 q 547 150 561 166 q 523 137 534 135 q 458 238 479 206 q 410 295 432 274 q 396 288 401 297 q 388 272 390 278 q 386 221 386 265 q 357 164 386 176 q 344 170 350 170 q 323 154 337 170 q 296 142 308 138 q 256 157 281 157 q 222 151 241 157 q 194 144 203 145 q 120 150 157 144 q 58 183 80 156 q 58 305 58 225 q 58 422 58 385 l 58 475 l 58 496 l 58 514 l 58 529 q 58 583 58 556 q 52 640 58 611 q 39 677 55 653 q 24 708 24 700 q 49 732 24 724 q 53 750 52 740 q 55 768 55 760 q 48 824 55 786 q 42 882 42 861 q 43 902 42 895 q 37 946 43 917 q 32 991 32 975 q 34 1013 32 999 q 49 1016 45 1016 q 69 1012 60 1016 q 87 999 78 1009 q 99 962 96 987 q 105 916 102 936 q 120 955 113 927 q 134 995 127 982 q 157 994 142 998 q 175 990 172 990 q 190 999 184 990 q 218 980 202 1002 q 240 959 235 959 q 256 978 247 959 q 273 1009 259 1003 q 304 1012 295 1012 q 342 1005 327 1012 q 367 980 357 999 q 381 938 378 960 q 385 884 385 916 l 385 842 q 399 834 398 832 q 534 1025 466 929 q 558 1001 551 1022 "},"t":{"x_min":-6,"x_max":738.6875,"ha":722,"o":"m 687 984 q 674 952 680 968 q 683 941 674 946 l 701 939 q 695 919 702 929 q 676 901 689 908 q 651 887 664 894 q 670 874 651 874 q 689 867 689 874 q 682 852 689 864 q 620 825 667 825 q 562 815 574 825 q 565 805 560 811 q 577 800 569 800 q 655 793 614 800 q 736 779 697 786 q 736 761 740 775 q 708 748 723 751 q 668 745 693 745 l 627 745 q 589 742 601 745 q 580 732 582 738 q 585 724 578 726 q 610 713 590 718 q 635 698 630 708 q 605 682 622 686 q 563 678 588 678 q 515 678 550 678 q 479 678 480 678 q 464 610 464 659 q 459 551 464 561 q 464 500 464 529 q 464 444 464 472 q 464 368 464 419 q 464 289 464 316 q 464 252 464 278 q 464 214 464 226 q 449 196 464 200 q 432 189 435 193 q 404 139 413 155 q 378 109 394 123 q 355 131 363 115 q 340 172 347 147 q 295 215 318 200 q 245 230 272 230 q 228 225 236 228 q 198 219 208 216 q 179 243 183 236 q 177 271 170 258 l 177 484 q 177 564 177 523 q 165 696 165 683 l 156 703 q 105 699 137 703 q 65 696 72 696 q 25 700 42 696 q -5 719 8 705 q 4 740 -9 732 q 20 750 18 747 q 18 780 18 771 q 39 806 18 806 q 68 819 65 813 q 33 839 61 833 q -2 857 5 844 q 7 883 -7 869 q 23 903 23 896 q 19 915 23 911 q 15 924 16 919 q 14 932 14 929 q 21 958 14 940 q 29 984 29 976 l 39 989 l 434 989 l 455 989 l 476 989 q 558 989 533 989 q 620 997 584 989 q 661 993 645 993 q 687 984 676 993 "},"W":{"x_min":-15.21875,"x_max":1221.5625,"ha":1194,"o":"m 957 1031 l 957 939 q 970 931 964 931 q 992 944 977 931 q 1012 958 1007 957 q 1027 962 1018 957 q 1044 965 1037 968 q 1049 951 1049 961 q 1046 936 1049 945 q 1044 922 1044 926 q 1062 910 1044 910 q 1089 958 1076 921 q 1126 1001 1102 995 q 1129 987 1129 997 q 1128 970 1128 976 q 1139 951 1128 955 q 1165 976 1143 954 q 1192 993 1182 993 q 1210 984 1199 993 q 1221 972 1218 981 l 1217 947 l 1131 730 l 1095 630 l 1019 420 l 959 154 q 951 133 954 148 q 931 97 944 104 q 906 96 914 96 q 878 114 884 96 q 860 150 878 133 q 827 172 837 166 q 800 172 808 172 q 777 178 788 172 q 696 322 744 231 q 619 469 657 395 q 594 473 608 487 l 574 441 l 448 181 q 434 172 440 176 q 421 173 428 167 q 416 187 416 177 q 419 212 419 205 q 405 220 419 222 q 365 174 399 195 q 326 130 331 154 q 292 125 314 137 q 268 113 270 113 q 249 133 255 113 q 235 167 249 150 q 213 198 215 194 q 97 526 159 342 q -8 857 43 691 q -13 890 -11 872 q -15 920 -15 908 q -8 957 -15 943 q 7 950 1 959 q 18 939 14 940 l 44 939 q 96 829 50 933 q 135 766 112 793 q 143 780 143 769 q 139 798 143 786 q 135 818 135 811 q 119 873 123 855 q 110 932 110 910 q 112 957 110 940 q 137 963 119 972 q 159 937 148 941 q 174 936 167 934 q 190 941 182 939 q 205 905 193 939 q 229 882 213 882 q 244 907 240 900 q 266 925 254 922 q 279 890 274 901 q 293 872 284 879 q 309 877 301 870 q 325 890 316 883 q 353 811 339 866 q 376 737 367 757 q 392 745 387 736 q 402 765 396 755 q 435 830 411 795 q 499 939 491 912 q 519 968 512 958 q 549 988 533 987 q 572 982 559 993 q 596 979 586 972 q 627 1008 601 981 q 666 1020 646 1027 q 756 889 715 966 q 820 746 781 843 q 828 741 823 746 q 837 737 833 736 q 860 801 850 757 q 872 855 869 845 q 894 957 886 924 q 950 1038 909 1016 q 957 1031 955 1034 "},"v":{"x_min":19.390625,"x_max":967.4375,"ha":972,"o":"m 401 913 q 485 669 443 791 q 498 673 494 668 q 507 690 502 679 q 628 1052 567 870 q 642 1060 639 1060 q 664 1028 642 1043 q 680 993 686 1013 q 697 987 686 982 q 722 1029 715 1016 q 760 1048 737 1052 q 767 1034 767 1044 q 765 1024 767 1030 q 763 1014 764 1019 q 762 1005 762 1009 q 791 1017 774 994 q 812 1034 802 1033 q 823 1038 816 1037 q 836 1041 829 1040 q 829 1000 839 1026 q 819 965 819 974 q 823 947 819 955 q 853 976 839 951 q 876 1006 868 1001 q 895 1019 884 1012 q 919 1027 907 1026 q 917 1008 922 1020 q 913 992 913 997 q 926 979 913 984 q 967 960 955 979 q 932 872 960 926 q 906 820 910 829 l 798 569 l 721 359 q 661 170 691 265 l 661 150 q 651 120 661 131 q 636 118 643 118 q 622 132 622 118 q 623 147 623 136 q 616 161 623 159 q 594 157 596 157 q 576 170 582 157 q 577 200 574 180 q 581 226 581 220 q 576 244 581 237 q 552 205 560 232 q 545 151 545 179 q 521 148 532 139 q 510 170 515 152 q 490 189 505 189 q 462 170 485 175 q 437 152 440 166 q 418 157 429 150 q 403 164 407 164 q 389 141 394 148 q 379 134 384 134 q 367 138 374 134 q 331 142 345 140 q 313 159 316 143 q 282 258 304 205 q 240 352 260 305 q 141 643 208 476 q 22 927 81 784 q 23 946 15 937 q 41 956 30 955 q 67 925 53 951 q 93 900 81 900 q 111 905 101 900 q 134 934 123 908 q 166 952 145 960 q 172 967 172 956 q 171 985 171 979 q 181 1002 171 998 q 190 993 185 997 q 200 989 195 989 q 220 998 207 989 q 240 1008 234 1008 q 257 984 250 1008 q 272 976 263 977 q 290 973 280 974 q 309 945 298 966 q 333 920 320 923 q 336 937 336 926 q 329 969 336 948 q 322 997 323 990 q 308 1023 313 1012 q 304 1047 304 1034 q 308 1064 304 1055 q 348 1012 328 1044 q 401 913 374 962 "},"s":{"x_min":-3,"x_max":627.4375,"ha":638,"o":"m 332 1017 q 334 995 333 1004 q 347 984 336 986 q 337 960 341 969 q 332 943 333 951 q 376 970 348 943 q 419 998 404 998 q 451 979 435 998 q 475 986 460 986 q 503 984 495 984 q 524 990 517 984 q 545 980 529 989 q 573 978 562 971 q 573 964 575 971 q 556 933 570 957 q 541 918 545 922 q 530 898 532 908 q 582 909 547 895 q 612 918 604 918 q 627 915 616 918 q 577 869 615 879 q 522 827 574 865 q 490 772 490 804 q 504 677 503 684 q 558 598 519 628 q 573 475 573 537 q 553 353 573 406 q 443 189 507 269 q 386 167 419 167 q 362 171 373 167 q 384 213 373 192 q 374 226 384 221 q 345 235 364 235 q 300 225 330 235 q 258 216 270 216 q 234 226 243 216 q 226 266 226 237 q 202 275 215 275 q 171 268 190 275 q 148 260 152 261 q 133 260 144 260 q 100 266 116 260 q 114 280 101 272 q 123 296 126 288 l 115 302 q 74 295 101 302 q 33 288 47 288 q -3 299 13 288 l -3 304 q 152 376 74 340 q 262 505 239 428 q 242 558 265 529 q 213 608 215 591 l 179 636 q 160 761 170 698 q 251 927 240 912 q 326 1017 283 975 l 332 1017 "},"B":{"x_min":-16.21875,"x_max":706.8125,"ha":722,"o":"m 302 953 l 515 953 q 529 932 527 948 q 536 910 531 916 q 610 855 577 895 q 705 731 657 792 q 706 715 706 726 q 695 676 706 697 q 659 615 676 645 l 579 519 q 589 485 579 501 q 630 437 610 460 q 675 305 675 378 q 627 203 661 251 q 543 126 593 156 q 504 119 525 119 q 476 120 487 119 q 427 126 434 126 q 406 126 416 126 q 391 120 395 122 q 331 126 370 120 q 271 132 291 132 q 250 130 257 132 q 241 138 242 137 q 220 151 228 151 q 210 148 215 151 q 184 131 198 140 q 159 124 171 123 q 146 145 150 138 q 126 156 138 159 q 106 124 108 129 q 73 102 92 108 q 57 104 62 104 q 31 104 39 104 q 1 117 9 104 q 11 187 11 145 q 11 269 11 228 l 11 349 q 15 445 11 403 q 31 526 20 487 q 33 541 33 531 q 27 578 33 559 q 15 623 15 610 q 15 675 15 635 q 15 748 15 715 l 15 851 q -3 867 12 857 q -14 889 -20 877 q 4 898 -2 894 q 16 910 12 902 l 16 951 q 41 955 28 951 q 68 963 54 959 q 111 937 89 949 q 125 945 118 937 q 139 935 133 939 q 152 935 145 931 q 159 949 159 938 q 161 969 159 965 q 182 963 172 969 q 220 945 213 946 q 234 933 228 937 q 246 935 239 930 q 256 959 253 941 q 271 982 258 977 q 288 972 280 982 q 302 953 295 963 m 309 754 q 299 727 299 745 q 301 706 299 713 q 306 694 305 698 q 308 676 308 690 q 308 653 308 665 q 321 640 310 642 q 351 670 342 656 q 362 712 366 691 q 339 741 352 728 q 309 754 325 754 m 301 437 q 301 405 301 419 q 301 380 301 391 q 304 339 301 355 q 317 310 307 323 q 351 323 337 314 q 370 348 365 331 q 357 394 377 371 q 317 440 336 417 q 301 437 308 438 "},"?":{"x_min":14,"x_max":534,"ha":545,"o":"m 413 930 q 461 841 449 897 q 470 732 470 804 l 470 670 q 421 597 470 651 q 400 551 400 572 q 404 530 400 541 q 415 501 404 513 q 443 483 426 488 q 453 480 446 481 q 474 479 460 479 l 498 479 q 534 470 524 479 q 523 447 534 458 q 500 430 506 434 q 464 421 494 426 q 423 401 434 416 q 394 386 402 395 q 434 313 401 358 q 472 240 467 268 q 433 182 467 208 q 370 133 400 156 q 325 117 352 124 q 276 111 299 111 q 225 120 248 111 q 220 167 222 144 q 246 202 246 201 q 248 227 252 216 q 180 211 213 211 q 149 215 164 211 q 138 230 146 225 q 119 230 129 236 q 100 225 114 225 q 81 230 88 225 q 85 252 66 245 q 126 293 106 270 q 187 370 152 320 q 150 423 190 390 q 125 463 129 441 q 115 495 122 484 q 96 509 108 506 q 83 517 84 512 q 123 645 83 581 q 209 755 134 662 q 201 778 216 768 q 182 791 187 789 q 102 814 142 801 q 37 855 62 826 q 47 867 38 861 q 69 867 58 867 q 48 882 64 878 q 19 890 32 886 q 14 898 14 897 q 47 910 24 910 q 89 907 76 907 q 117 911 107 907 q 135 935 127 916 q 212 926 160 935 q 290 918 263 918 q 183 966 267 934 q 118 998 142 981 q 135 1004 125 1004 q 153 1001 141 1004 q 172 998 165 998 q 413 930 292 963 "},"H":{"x_min":7.671875,"x_max":769,"ha":788,"o":"m 493 914 q 508 925 503 913 q 522 932 514 937 q 536 909 530 928 q 556 894 542 890 q 567 921 563 900 q 583 947 571 943 q 600 932 593 937 q 617 927 608 927 q 632 935 624 927 q 648 931 640 937 q 664 918 655 924 q 681 948 673 927 q 699 980 690 970 q 716 967 711 974 q 721 947 721 959 q 719 923 721 936 q 717 897 718 910 q 726 866 717 876 l 754 887 l 763 877 q 769 771 769 834 q 769 700 769 708 q 769 601 769 668 q 769 500 769 534 q 753 468 769 487 q 736 442 738 450 q 735 422 735 434 q 735 404 735 409 q 749 266 735 369 q 756 184 756 215 q 751 134 756 159 q 732 109 736 125 q 728 73 728 94 l 728 48 q 705 44 715 33 q 688 68 694 61 q 664 75 679 83 q 652 66 657 69 q 642 68 647 64 q 628 98 634 75 q 610 129 623 122 q 576 114 598 114 q 534 114 553 114 q 529 129 531 115 q 515 143 526 143 q 499 116 504 125 q 477 96 488 101 q 462 96 470 96 q 453 107 455 97 q 465 141 465 122 q 459 173 465 154 q 447 231 447 218 q 451 279 451 255 q 440 348 451 315 q 412 361 429 361 q 379 356 390 358 q 357 339 362 351 q 353 306 353 327 q 353 273 353 284 q 351 255 353 266 q 343 188 347 215 q 308 152 339 161 q 294 125 301 138 q 277 133 288 123 q 256 136 266 143 q 242 118 248 125 q 226 119 236 112 q 207 141 216 130 q 191 136 200 145 q 174 131 181 126 q 139 161 169 141 q 120 182 125 169 l 105 182 q 74 150 97 168 q 46 116 52 131 q 29 109 38 109 q 10 114 23 109 l 7 120 q 24 301 24 261 q 28 483 28 399 l 28 744 q 28 814 28 771 q 28 865 28 858 q 32 887 32 873 q 32 928 32 907 q 42 917 36 927 q 60 900 49 907 q 89 887 71 894 q 97 921 94 897 q 105 955 99 946 q 123 949 114 958 q 138 928 132 940 q 140 901 138 910 q 151 887 142 893 q 169 914 161 901 q 193 942 178 927 q 202 961 199 952 q 211 972 206 969 q 234 957 226 972 q 238 939 238 946 q 236 915 236 924 q 246 888 236 898 q 259 899 251 899 q 290 891 274 894 q 306 930 300 903 q 316 962 313 957 q 330 942 327 955 q 334 907 334 928 q 334 888 334 897 q 334 869 334 879 q 334 822 334 854 q 334 775 334 790 q 335 730 334 747 q 343 695 336 714 q 361 688 350 688 q 379 691 366 688 q 395 695 391 695 q 405 717 402 703 q 408 746 408 730 q 408 767 408 757 q 408 789 408 778 q 408 841 408 814 q 408 896 408 868 q 424 892 416 899 q 435 886 432 886 q 443 896 439 886 q 443 919 443 908 q 443 940 443 931 q 449 983 443 959 q 476 950 464 974 q 493 914 488 926 "},"c":{"x_min":11,"x_max":714.328125,"ha":721,"o":"m 548 957 q 481 907 514 932 q 506 902 492 902 q 532 904 514 902 q 556 907 549 907 q 528 884 552 897 q 505 853 505 870 q 528 850 513 850 q 566 856 540 850 q 607 862 592 862 q 609 840 609 859 q 615 830 609 834 q 649 830 631 830 q 620 808 645 815 q 588 787 595 801 q 599 774 588 777 q 614 768 611 770 q 609 754 615 763 q 611 738 603 744 q 631 734 621 734 q 662 736 651 736 q 681 732 673 736 q 663 720 678 726 q 649 701 649 714 q 682 691 655 694 q 714 680 708 689 q 668 668 700 668 q 622 661 637 668 q 534 641 607 654 q 404 558 433 623 q 382 537 389 545 q 372 509 372 523 q 376 494 372 502 q 505 394 418 426 q 662 354 525 387 q 647 339 655 344 q 645 326 639 334 q 672 311 655 316 q 704 301 688 305 q 670 297 684 298 q 647 285 655 296 q 639 262 653 272 q 627 242 626 251 q 607 238 616 238 q 584 239 596 238 q 562 242 573 240 q 532 231 543 242 q 568 201 543 211 q 617 183 593 192 q 611 168 619 175 q 596 160 609 167 q 536 146 556 151 q 503 132 515 142 l 533 91 l 526 85 q 437 101 481 85 q 303 171 422 107 q 260 200 290 178 q 182 239 212 235 q 115 298 148 264 q 19 416 105 311 q 11 466 11 441 q 23 550 11 498 q 36 605 35 601 q 77 687 64 661 q 130 765 103 737 q 174 802 139 769 q 223 828 201 828 q 333 910 280 878 q 450 961 386 941 q 429 948 439 957 q 418 929 419 940 l 424 923 q 489 945 454 933 q 547 963 524 958 l 548 957 "},"&":{"x_min":30,"x_max":861.078125,"ha":886,"o":"m 409 977 q 519 936 463 963 q 621 876 552 919 q 641 860 636 865 q 646 848 646 855 q 622 844 637 855 q 606 841 613 837 q 576 850 597 852 q 572 844 571 848 q 574 834 572 840 q 595 822 583 829 q 614 820 606 816 q 623 825 617 825 q 635 823 629 825 q 648 783 648 801 q 609 713 648 752 q 551 647 560 665 q 547 633 547 638 q 553 614 547 623 q 568 597 564 602 q 592 586 586 587 q 603 590 598 586 q 689 662 646 626 q 767 746 741 706 q 785 737 780 749 q 759 663 771 699 q 770 657 764 657 q 793 665 786 663 q 808 690 797 668 q 836 705 819 713 q 842 686 842 695 q 838 663 842 679 q 834 641 834 648 q 851 618 834 627 q 840 573 855 600 q 826 534 826 546 q 836 508 826 521 q 802 448 832 480 q 771 417 786 432 l 774 397 q 826 350 800 373 q 861 294 857 320 q 844 266 844 276 q 846 256 844 262 q 857 235 857 245 q 851 223 857 228 q 806 234 838 214 q 782 247 787 247 q 763 219 767 247 q 748 214 756 214 q 722 219 730 219 q 710 214 715 219 q 713 195 711 202 q 714 181 715 188 q 693 170 701 174 q 682 158 685 166 l 688 127 q 632 141 660 122 q 545 194 553 193 q 354 147 450 170 q 307 154 328 147 q 263 180 285 162 q 163 219 213 194 q 62 280 112 244 q 43 307 52 293 q 39 334 33 322 q 47 359 47 347 q 39 382 47 371 q 30 403 30 390 q 37 430 30 417 q 78 516 57 478 q 128 600 93 544 q 106 652 128 625 q 72 699 74 691 q 60 734 63 720 q 57 767 57 748 q 58 784 57 779 q 289 1002 172 905 q 327 1007 303 997 q 358 1018 351 1018 q 383 991 376 1018 l 409 977 m 366 785 q 356 767 356 781 q 356 746 356 753 q 372 740 362 740 q 383 749 381 748 q 391 776 395 762 q 366 785 387 791 m 335 406 q 313 383 320 406 q 305 358 307 361 q 330 346 309 346 q 351 359 342 351 q 356 380 361 368 l 335 406 "},"I":{"x_min":10.390625,"x_max":371,"ha":387,"o":"m 306 939 q 318 955 310 940 q 338 966 326 969 q 344 930 344 951 q 338 891 344 914 q 327 847 333 868 q 317 753 317 805 q 317 643 317 701 l 317 614 q 357 426 344 523 q 371 225 371 329 q 349 194 368 205 q 312 174 330 183 q 263 180 288 176 q 229 139 258 151 q 172 118 199 128 q 147 144 154 115 q 130 174 140 174 q 108 164 122 174 q 98 156 107 162 q 82 153 89 150 q 56 180 71 158 q 27 203 40 203 q 27 291 27 232 q 27 379 27 350 l 27 396 q 19 518 27 457 q 24 651 24 591 q 24 783 24 722 q 10 916 14 873 l 14 929 q 37 901 31 926 q 58 873 44 876 q 82 962 70 918 q 110 918 101 958 q 141 878 118 878 q 156 880 145 878 q 172 925 165 894 q 182 964 179 957 q 214 948 204 966 q 223 905 212 919 q 239 921 233 908 q 250 947 244 933 q 259 971 255 961 q 270 986 263 980 q 289 963 282 984 q 306 939 295 941 "},"•":{"x_min":23,"x_max":538,"ha":545,"o":"m 298 767 q 283 732 295 750 q 246 678 264 704 l 261 678 q 344 738 302 707 q 357 754 349 739 q 376 761 365 768 q 381 749 381 754 q 375 728 381 741 q 363 697 363 700 q 385 686 363 686 q 396 692 389 691 q 410 691 407 691 q 411 670 410 680 q 420 657 412 661 q 437 664 426 657 q 452 671 448 671 q 463 662 460 671 q 459 623 459 636 q 480 603 459 603 q 489 586 486 593 q 498 578 493 579 q 516 586 509 583 q 531 584 524 589 q 538 568 538 578 q 533 548 538 558 q 528 536 529 539 q 431 408 475 460 q 311 299 371 337 q 267 308 279 299 q 245 344 267 326 q 216 378 219 367 q 197 394 211 383 q 167 428 174 412 q 119 454 144 441 q 36 497 39 496 q 23 528 23 511 l 25 539 l 249 764 q 266 780 253 766 q 291 788 279 795 l 298 767 "},"G":{"x_min":-20,"x_max":822.40625,"ha":856,"o":"m 535 948 q 525 928 537 942 q 514 909 514 913 q 526 899 514 903 l 635 909 q 642 895 642 903 q 642 880 642 888 q 652 870 643 873 l 720 877 q 711 858 721 870 q 701 840 701 845 q 709 829 701 835 q 731 829 720 829 q 748 824 743 829 q 736 808 747 816 q 720 797 725 799 l 526 729 q 508 713 515 722 q 507 694 501 704 q 531 682 516 682 q 545 689 538 682 q 564 699 550 699 q 577 694 572 699 q 587 686 582 690 q 605 677 598 676 q 614 689 610 679 q 627 694 618 699 q 639 669 632 689 q 656 647 646 650 q 668 673 663 652 q 686 697 672 693 q 724 700 698 694 q 757 707 750 707 q 790 686 779 707 q 799 639 796 664 q 802 591 802 615 q 799 523 802 554 q 790 406 790 416 q 794 351 790 380 q 804 252 794 311 q 822 154 821 168 q 804 151 818 140 q 789 182 803 154 q 764 216 775 209 q 757 189 757 205 q 760 164 757 180 q 763 140 763 147 q 763 132 763 136 q 760 124 760 126 q 739 143 752 126 q 717 160 725 160 q 703 148 710 160 q 687 112 706 123 q 669 121 679 110 q 655 132 659 132 q 632 121 647 130 q 609 112 617 112 q 604 141 606 129 q 594 162 602 154 q 571 154 584 164 q 550 143 557 144 q 471 137 524 143 q 392 132 418 132 q 359 132 377 132 q 314 143 341 132 q 208 215 243 191 q 115 309 144 258 q 37 405 58 375 q -17 511 0 458 q -20 529 -20 518 q -10 558 -20 544 q 11 583 -5 566 q 86 726 34 654 q 197 853 125 780 q 292 906 230 887 q 394 939 382 934 q 471 950 440 946 q 531 955 502 955 l 535 948 m 452 684 q 404 640 430 669 q 363 587 393 627 q 339 552 351 570 q 328 518 328 534 q 330 501 328 506 l 396 431 q 420 425 415 425 q 434 425 426 425 q 497 445 472 425 q 500 481 500 470 q 485 586 500 523 q 469 666 471 650 q 464 679 471 673 q 452 684 457 686 "},"(":{"x_min":0,"x_max":5462,"ha":5734,"o":"m 2217 1024 q 2213 999 2213 1008 q 2219 989 2213 993 q 2266 1009 2244 998 q 2315 1040 2289 1020 q 2326 1024 2326 1040 q 2326 1006 2326 1015 q 2332 992 2326 997 q 2352 986 2345 991 q 2354 972 2360 982 q 2343 943 2348 965 q 2328 913 2339 921 q 2350 891 2332 900 q 2372 870 2368 882 q 2386 866 2379 866 q 2399 868 2392 866 q 2415 875 2406 871 q 2422 877 2418 879 q 2429 874 2425 875 q 2428 844 2435 859 q 2394 800 2426 839 q 2296 704 2330 734 q 2232 658 2263 674 q 2189 675 2215 660 q 2153 694 2162 691 q 2115 728 2126 721 q 2093 736 2105 736 q 2055 789 2067 772 q 2005 830 2032 819 q 2001 853 2001 841 q 2005 871 2001 863 q 2062 926 2029 893 q 2160 1006 2123 986 q 2179 1026 2172 1019 q 2200 1040 2192 1040 q 2217 1024 2208 1040 m 1344 1006 q 1345 987 1345 992 q 1302 844 1345 921 q 1254 765 1269 790 q 1206 745 1244 757 q 1154 712 1169 733 q 1079 683 1121 683 q 1054 655 1062 663 q 1022 637 1037 637 q 1011 638 1015 637 l 1005 644 q 1057 965 1031 803 q 1077 971 1064 971 q 1098 969 1091 969 q 1121 987 1116 969 q 1129 1011 1118 1008 q 1171 994 1152 1011 q 1185 973 1176 991 q 1208 959 1195 955 q 1222 992 1218 983 q 1235 1001 1227 1001 q 1249 959 1245 989 q 1260 917 1253 930 q 1288 946 1278 921 q 1303 976 1299 971 q 1310 1005 1310 980 q 1332 1024 1310 1030 l 1344 1006 m 4675 990 q 4695 984 4687 987 q 4710 984 4702 982 q 4729 1005 4718 997 q 4754 1008 4740 1014 q 4782 992 4763 1005 q 4812 980 4801 980 q 4831 987 4823 980 q 4861 987 4852 987 q 4880 980 4875 987 q 4885 930 4885 955 q 4850 785 4885 863 q 4811 705 4841 763 q 4796 686 4800 691 q 4776 679 4787 673 q 4754 686 4765 686 q 4720 678 4743 686 q 4689 671 4698 671 q 4668 662 4680 662 q 4647 666 4663 662 q 4623 669 4631 671 q 4616 686 4618 680 q 4603 700 4611 696 q 4584 705 4595 705 q 4542 683 4570 705 q 4493 668 4514 662 q 4478 680 4484 668 q 4485 717 4478 694 q 4493 751 4493 740 q 4471 751 4488 762 q 4455 729 4467 747 q 4434 712 4444 712 q 4422 716 4429 712 q 4394 709 4411 721 q 4373 697 4378 697 q 4354 712 4363 697 l 4344 712 l 4344 730 q 4377 832 4360 779 q 4395 930 4395 886 q 4395 948 4395 938 q 4392 969 4392 962 q 4412 986 4397 986 q 4444 982 4434 982 q 4465 1004 4463 982 q 4479 1008 4473 1008 q 4503 998 4487 1008 q 4528 989 4520 989 q 4544 995 4537 989 q 4573 1003 4555 992 q 4597 1014 4591 1014 q 4615 1006 4607 1014 q 4653 984 4629 984 q 4675 990 4665 984 m 4090 954 q 4091 935 4089 945 q 4105 923 4093 924 q 4129 928 4113 923 q 4154 934 4146 934 q 4170 930 4162 934 q 4190 892 4172 917 q 4209 853 4209 867 q 4194 826 4209 839 q 4215 817 4198 822 q 4236 801 4233 813 q 4218 750 4236 782 q 4204 719 4207 728 q 4179 705 4187 709 q 4165 680 4164 695 q 4185 663 4168 676 q 4195 637 4202 651 q 4135 628 4143 630 q 4106 615 4127 626 q 4087 593 4099 599 q 4056 587 4075 587 q 4033 589 4042 587 q 4020 591 4025 591 q 3981 576 4007 591 q 3941 561 3955 561 q 3913 573 3926 561 q 3883 599 3906 596 q 3846 604 3861 602 l 3780 639 q 3787 676 3772 652 q 3802 707 3802 701 q 3785 726 3802 719 q 3757 735 3767 730 q 3745 754 3748 741 q 3761 827 3745 773 q 3770 871 3770 855 q 3794 895 3787 888 q 3811 923 3808 909 q 3828 929 3817 929 q 3853 926 3845 926 q 3871 940 3865 926 l 3871 955 q 3885 980 3871 978 q 3922 988 3907 986 q 3948 991 3936 991 q 3978 984 3966 991 q 3999 997 3988 992 q 4023 1003 4011 1003 q 4040 999 4029 1003 q 4090 954 4076 987 m 3356 976 q 3349 910 3356 955 q 3343 842 3343 866 q 3353 783 3343 809 q 3381 830 3371 798 q 3424 917 3407 900 q 3476 940 3450 928 q 3499 925 3489 940 q 3518 921 3506 927 q 3537 918 3530 916 q 3556 943 3549 935 q 3581 963 3568 958 q 3609 961 3600 961 q 3647 974 3630 961 q 3658 957 3661 977 q 3634 871 3656 940 q 3618 783 3618 819 q 3614 734 3614 758 q 3592 696 3609 707 l 3575 696 q 3549 692 3559 696 q 3532 676 3540 689 q 3497 679 3510 679 q 3456 676 3473 679 q 3405 662 3439 673 q 3372 674 3384 662 q 3350 708 3360 687 q 3336 702 3342 708 q 3308 683 3315 684 q 3296 682 3302 682 q 3270 686 3289 682 q 3240 691 3250 691 q 3217 684 3228 691 q 3202 689 3209 689 q 3175 673 3191 689 q 3148 658 3159 658 q 3133 662 3141 658 q 3119 677 3125 667 q 3113 702 3113 687 q 3113 752 3113 727 q 3141 860 3126 815 q 3182 944 3156 905 q 3219 949 3196 940 q 3250 958 3243 958 q 3277 938 3266 958 l 3294 940 q 3322 982 3311 967 q 3341 998 3333 998 q 3356 976 3350 998 m 940 982 q 892 923 932 959 q 860 888 868 900 q 810 820 834 853 q 833 825 819 813 q 852 838 848 837 q 867 853 862 849 q 886 857 876 863 q 856 779 886 822 q 808 706 812 716 q 766 610 776 638 q 745 507 745 553 q 752 456 745 480 q 774 411 759 433 q 842 291 801 352 q 925 175 856 271 q 900 155 921 155 q 872 158 881 158 q 850 147 857 158 q 615 267 725 147 q 473 505 526 365 q 453 536 470 513 q 435 574 435 559 q 438 588 435 577 q 537 773 481 694 q 691 925 604 866 q 732 934 709 925 q 796 957 785 957 q 833 943 815 957 q 861 952 848 943 q 902 982 881 966 q 920 991 909 986 q 935 997 930 997 q 940 982 944 997 m 5217 957 q 5353 826 5293 915 q 5440 659 5391 769 q 5457 628 5453 645 q 5462 588 5462 612 q 5460 555 5462 571 q 5458 521 5459 538 q 5440 441 5458 484 q 5402 367 5429 415 q 5349 273 5374 319 q 5267 209 5312 220 q 5223 189 5266 209 q 5175 179 5196 177 q 5160 166 5169 171 q 5131 162 5150 162 q 5102 162 5112 162 q 5063 143 5075 162 q 5033 143 5044 143 q 5008 146 5018 143 q 4992 162 4998 149 q 5112 317 5055 228 q 5205 487 5161 394 q 5213 516 5205 494 q 5217 535 5217 527 q 5210 554 5217 547 q 5207 588 5214 571 q 5192 619 5196 609 q 5081 845 5154 713 q 5004 980 5042 911 q 5034 989 5014 989 q 5060 987 5051 987 q 5090 997 5079 987 q 5155 980 5117 1003 q 5217 957 5194 957 m 2807 938 q 2799 911 2802 920 q 2787 891 2796 902 q 2805 891 2793 882 q 2827 892 2817 899 q 2842 856 2834 874 q 2864 867 2851 853 q 2886 874 2876 881 q 2894 850 2894 861 q 2879 816 2894 837 q 2857 784 2860 790 q 2866 778 2861 778 q 2892 790 2879 783 q 2908 802 2895 791 q 2929 809 2920 813 q 2933 779 2929 808 q 2947 740 2938 751 q 2940 709 2947 723 q 2919 677 2933 695 q 2844 602 2869 626 q 2763 537 2800 559 q 2709 576 2733 537 q 2666 622 2685 616 q 2635 658 2646 628 q 2606 692 2624 687 q 2584 717 2603 699 q 2565 748 2565 736 q 2571 766 2565 757 q 2674 866 2622 820 q 2786 950 2726 911 q 2807 938 2801 947 m 1245 584 q 1359 434 1265 551 q 1426 344 1403 378 q 1435 316 1435 331 q 1421 285 1435 298 q 1383 271 1414 274 q 1353 246 1353 267 q 1354 231 1353 236 q 1298 200 1320 215 q 1259 158 1276 184 q 1237 135 1261 135 q 1207 129 1212 135 q 1146 156 1178 123 q 1116 188 1131 171 l 986 356 q 1018 385 989 369 q 1039 426 1046 401 q 1084 447 1058 447 q 1106 442 1092 449 q 1126 437 1120 434 q 1152 469 1126 459 q 1182 488 1177 478 q 1176 528 1178 508 q 1188 558 1176 547 q 1188 570 1189 562 q 1186 588 1188 578 q 1197 604 1186 601 q 1245 584 1226 604 m 2234 531 q 2238 507 2236 518 q 2259 514 2245 507 q 2283 516 2274 521 q 2298 501 2287 513 q 2315 490 2308 490 q 2327 496 2321 490 q 2339 503 2332 503 q 2354 498 2346 503 q 2371 488 2361 494 q 2370 479 2370 484 q 2370 473 2370 474 q 2387 443 2370 449 q 2405 430 2405 443 q 2403 410 2407 420 q 2396 387 2399 400 q 2402 372 2396 379 q 2424 384 2411 372 q 2444 396 2437 396 q 2458 390 2451 396 q 2461 372 2461 379 q 2450 335 2461 352 q 2420 300 2439 318 l 2252 133 q 2227 129 2245 129 q 2203 130 2211 129 q 2158 168 2198 138 q 2123 217 2128 192 q 2077 267 2100 242 q 2020 300 2047 296 q 2001 332 2001 313 q 2005 346 2001 339 l 2020 372 l 2185 542 q 2207 553 2193 553 q 2225 547 2217 553 q 2234 531 2233 541 m 1838 503 q 1848 476 1848 497 q 1861 451 1848 455 q 1878 463 1868 451 q 1894 476 1887 476 q 1905 471 1901 476 q 1910 441 1910 456 q 1901 394 1910 416 q 1876 341 1893 373 q 1830 245 1845 277 q 1778 152 1801 188 q 1754 131 1769 137 q 1722 126 1740 126 q 1694 126 1703 126 q 1678 126 1683 126 q 1633 133 1661 120 q 1596 146 1604 146 q 1566 129 1578 146 q 1548 131 1557 129 q 1514 144 1540 133 q 1533 206 1514 170 q 1554 242 1543 224 q 1687 505 1620 373 q 1706 494 1697 507 q 1727 484 1716 481 q 1756 523 1736 489 q 1796 544 1771 548 q 1814 519 1808 525 q 1838 503 1824 505 m 2884 498 q 2886 479 2886 488 q 2886 460 2886 470 q 2854 299 2886 384 q 2786 152 2839 259 q 2743 113 2773 132 q 2695 83 2703 89 q 2673 99 2677 83 q 2666 133 2669 116 q 2675 160 2670 147 q 2668 173 2675 167 q 2628 149 2649 158 q 2586 140 2608 140 q 2552 148 2568 140 q 2627 485 2588 316 q 2655 496 2635 496 q 2674 496 2665 496 q 2691 504 2684 496 q 2711 499 2698 501 q 2740 497 2725 497 q 2782 500 2753 497 q 2828 503 2811 503 q 2848 509 2839 507 q 2864 512 2857 512 q 2884 498 2879 512 m 0 1108 l 0 -3 l 279 -3 l 279 1108 l 0 1108 "},"U":{"x_min":9.75,"x_max":791,"ha":807,"o":"m 704 1059 q 710 1017 706 1050 q 723 970 715 984 q 749 970 731 967 q 771 973 768 973 q 791 959 785 973 l 791 719 q 791 612 791 683 q 791 505 791 541 l 791 202 q 756 150 756 187 q 759 127 756 142 q 761 109 762 111 q 751 106 757 103 q 736 113 745 109 q 719 142 732 127 q 694 172 706 158 q 687 160 689 170 q 682 148 686 151 q 634 191 661 148 q 602 216 620 213 q 594 170 597 199 q 592 118 592 142 l 592 85 q 578 84 579 81 q 570 102 574 88 q 558 120 566 116 q 539 118 550 123 q 527 99 529 114 q 518 69 527 75 q 495 87 502 69 q 484 107 487 105 q 473 164 478 124 q 461 223 469 205 q 407 206 434 223 q 322 157 326 158 q 187 175 248 157 q 73 238 126 194 q 23 308 36 269 q 9 399 9 346 q 15 482 9 425 q 21 569 21 539 l 21 587 q 18 616 21 596 q 18 692 18 656 q 18 794 18 726 q 18 895 18 862 q 18 931 18 916 q 19 980 18 945 q 35 987 26 987 q 52 983 41 987 q 68 979 63 979 q 86 987 78 979 q 110 902 97 967 q 127 848 119 867 q 142 885 136 858 q 149 916 147 913 q 166 977 157 945 q 195 1030 176 1009 l 209 1028 l 209 989 q 211 919 209 942 q 223 870 213 897 q 246 948 240 891 q 267 1027 253 1005 q 286 1038 280 1035 q 301 1038 293 1041 l 306 1031 q 304 998 304 1009 q 299 938 299 952 q 301 908 299 917 l 309 902 l 365 945 q 364 919 369 937 q 361 894 359 901 q 343 649 361 845 q 335 502 335 559 q 380 480 351 487 q 437 469 409 474 q 462 485 457 471 q 468 517 468 499 q 458 569 468 534 q 448 621 448 603 q 448 730 448 656 q 448 841 448 804 q 448 910 448 878 q 461 987 448 942 q 477 999 465 998 q 494 999 489 1000 q 500 948 500 987 q 512 893 500 910 q 524 904 520 893 q 532 928 528 915 q 540 983 532 961 q 571 1018 548 1005 q 629 996 596 1013 q 631 938 629 956 q 645 897 633 920 q 659 917 659 898 q 663 948 659 944 q 671 1010 668 999 q 704 1059 680 1043 "},"F":{"x_min":23,"x_max":689.890625,"ha":665,"o":"m 153 977 q 167 955 158 974 q 188 938 176 937 q 199 958 195 951 q 214 966 203 966 q 234 953 222 965 q 255 947 247 942 q 353 947 286 947 q 439 947 420 947 q 463 947 451 947 q 492 949 475 947 q 528 954 504 945 q 560 964 552 964 q 589 944 578 964 q 583 930 583 938 q 589 903 589 910 q 575 891 589 892 q 550 884 562 887 q 535 866 537 878 q 568 859 549 859 q 584 859 576 859 q 604 862 598 862 q 627 864 623 866 q 607 829 634 847 q 581 807 581 811 q 603 792 581 799 q 638 781 625 785 q 658 772 651 778 q 625 753 658 759 q 592 743 592 747 q 617 722 592 738 q 639 713 638 716 q 628 697 640 704 q 620 677 615 689 q 651 655 632 664 q 688 637 670 645 l 689 626 q 669 625 683 625 q 624 630 654 625 q 578 636 594 636 q 571 625 571 630 q 574 609 574 613 q 565 597 574 599 q 546 585 554 590 q 541 569 538 580 q 561 562 545 563 q 582 551 578 561 q 574 522 583 540 q 565 498 565 505 q 579 476 565 485 q 569 449 582 465 q 550 447 558 448 q 539 440 542 446 q 557 418 538 428 q 577 405 577 408 q 561 394 577 399 q 515 390 537 390 q 454 395 489 390 q 353 408 373 408 l 341 391 q 346 298 341 359 q 352 208 352 237 q 347 151 352 180 q 337 144 342 144 q 313 155 320 152 q 288 184 297 166 q 271 219 279 201 q 253 209 259 223 q 237 200 248 196 q 211 196 219 196 q 200 208 204 196 q 169 189 187 205 q 146 172 151 173 q 107 158 135 162 q 67 142 79 153 q 55 155 59 144 q 47 177 50 166 q 47 295 47 236 q 47 416 47 355 q 39 595 47 519 l 39 611 q 39 768 39 694 q 23 916 39 843 q 25 931 25 921 q 23 959 23 951 q 34 982 23 974 q 53 973 44 973 q 70 978 60 973 q 97 991 91 991 q 112 984 105 991 q 135 987 128 987 q 153 977 146 987 m 322 673 l 313 667 q 327 640 311 659 q 362 640 339 640 q 414 640 388 640 q 466 640 440 640 l 479 648 q 478 660 482 650 q 401 668 447 664 q 322 673 354 673 "},"r":{"x_min":20,"x_max":676.140625,"ha":692,"o":"m 449 972 q 571 876 510 923 q 640 804 610 844 q 676 725 669 765 q 646 666 658 708 q 625 608 635 623 l 539 498 q 555 433 539 466 q 590 373 555 432 l 667 242 l 673 208 q 632 203 655 203 q 597 206 614 203 q 559 218 580 209 q 544 196 548 216 q 524 177 540 177 q 462 194 492 185 q 439 188 450 194 q 431 178 434 182 q 413 164 420 167 q 365 225 389 184 q 325 290 336 278 q 309 267 309 289 l 309 244 q 306 228 309 231 q 300 209 303 225 q 283 203 297 194 q 281 212 281 205 q 281 222 281 218 q 274 237 281 233 q 255 231 267 231 q 232 233 245 231 q 200 201 219 229 q 168 173 180 173 q 146 185 158 173 q 124 207 143 186 q 101 221 111 221 l 90 218 l 40 194 l 35 203 q 31 300 31 246 q 31 403 31 340 q 31 466 31 465 q 31 522 31 490 q 31 587 31 541 q 31 637 31 632 q 31 673 31 655 q 28 697 29 690 q 31 733 31 722 q 25 800 31 755 q 20 866 20 844 q 31 933 20 904 q 29 965 31 945 q 27 987 27 986 q 28 1005 27 998 q 60 1024 41 1024 q 86 1016 71 1024 q 134 1000 123 1000 q 151 1012 139 1001 q 175 1018 164 1024 q 200 986 187 1001 q 243 1001 222 983 q 247 1030 243 1024 q 264 1037 252 1037 q 299 1053 275 1053 q 310 1052 305 1053 q 326 1047 315 1051 q 449 972 387 1009 m 299 775 q 295 721 295 752 q 295 673 295 697 q 295 628 295 650 l 303 619 q 321 623 311 621 q 352 648 326 629 q 389 702 389 676 q 351 748 371 732 q 299 775 326 769 "},"x":{"x_min":-30,"x_max":893.640625,"ha":882,"o":"m 689 1008 q 684 996 690 1005 q 678 984 678 987 q 687 977 678 978 q 704 999 690 992 q 734 1014 719 1006 q 748 1014 740 1014 q 761 1006 759 1014 q 754 985 761 1001 q 752 959 748 969 q 767 947 756 955 q 779 931 778 938 q 750 879 765 907 q 731 829 736 852 q 753 834 743 822 q 774 858 763 845 q 801 880 786 868 q 831 892 816 892 q 849 887 838 892 q 879 865 870 872 q 891 834 898 849 q 667 580 778 706 l 671 556 l 823 374 q 831 357 827 366 q 834 338 836 348 q 814 325 822 331 q 807 312 807 320 q 812 297 807 305 q 817 280 817 289 q 812 259 817 269 q 797 236 807 249 q 769 228 786 228 q 742 232 756 228 q 713 242 727 237 q 707 226 707 237 q 709 214 707 225 q 711 198 712 202 q 680 187 697 200 q 656 175 663 175 q 640 182 649 175 q 604 211 623 182 q 581 232 593 229 q 575 219 575 225 q 581 200 575 215 q 581 178 587 186 q 567 168 573 172 q 555 165 561 165 l 445 312 q 430 319 441 319 q 416 313 422 319 l 273 137 q 258 160 268 152 q 227 169 245 173 q 208 175 213 173 q 177 181 189 181 q 151 175 162 181 q 139 201 139 183 q 141 215 139 207 q 149 226 147 222 q 151 236 152 230 q 137 240 143 240 q 104 218 126 240 q 63 204 81 197 l 50 207 q 53 222 53 212 q 45 252 53 233 q 37 281 37 271 q 43 300 37 289 l 168 488 q 202 537 185 512 q 216 587 219 563 q 73 777 168 667 q -23 886 24 831 q -30 905 -30 893 q -4 900 -17 904 q 20 893 9 897 q 50 866 41 874 q 84 850 69 850 q 92 870 87 862 q 108 870 98 877 q 126 859 117 865 q 143 855 134 852 q 142 874 145 861 q 139 891 139 887 q 149 907 139 901 q 174 896 159 907 q 194 886 189 886 q 207 892 201 886 q 203 922 203 912 q 209 935 203 930 q 227 947 220 934 q 247 976 243 976 q 265 967 256 976 q 286 947 275 956 q 310 940 298 937 q 317 954 316 942 q 327 970 318 966 l 339 966 q 441 830 389 898 l 452 833 q 517 918 474 852 q 649 1022 587 1022 q 682 1018 663 1022 l 689 1008 "},"V":{"x_min":19.390625,"x_max":967.4375,"ha":972,"o":"m 401 913 q 485 669 443 791 q 498 673 494 668 q 507 690 502 679 q 628 1052 567 870 q 642 1060 639 1060 q 664 1028 642 1043 q 680 993 686 1013 q 697 987 686 982 q 722 1029 715 1016 q 760 1048 737 1052 q 767 1034 767 1044 q 765 1024 767 1030 q 763 1014 764 1019 q 762 1005 762 1009 q 791 1017 774 994 q 812 1034 802 1033 q 823 1038 816 1037 q 836 1041 829 1040 q 829 1000 839 1026 q 819 965 819 974 q 823 947 819 955 q 853 976 839 951 q 876 1006 868 1001 q 895 1019 884 1012 q 919 1027 907 1026 q 917 1008 922 1020 q 913 992 913 997 q 926 979 913 984 q 967 960 955 979 q 932 872 960 926 q 906 820 910 829 l 798 569 l 721 359 q 661 170 691 265 l 661 150 q 651 120 661 131 q 636 118 643 118 q 622 132 622 118 q 623 147 623 136 q 616 161 623 159 q 594 157 596 157 q 576 170 582 157 q 577 200 574 180 q 581 226 581 220 q 576 244 581 237 q 552 205 560 232 q 545 151 545 179 q 521 148 532 139 q 510 170 515 152 q 490 189 505 189 q 462 170 485 175 q 437 152 440 166 q 418 157 429 150 q 403 164 407 164 q 389 141 394 148 q 379 134 384 134 q 367 138 374 134 q 331 142 345 140 q 313 159 316 143 q 282 258 304 205 q 240 352 260 305 q 141 643 208 476 q 22 927 81 784 q 23 946 15 937 q 41 956 30 955 q 67 925 53 951 q 93 900 81 900 q 111 905 101 900 q 134 934 123 908 q 166 952 145 960 q 172 967 172 956 q 171 985 171 979 q 181 1002 171 998 q 190 993 185 997 q 200 989 195 989 q 220 998 207 989 q 240 1008 234 1008 q 257 984 250 1008 q 272 976 263 977 q 290 973 280 974 q 309 945 298 966 q 333 920 320 923 q 336 937 336 926 q 329 969 336 948 q 322 997 323 990 q 308 1023 313 1012 q 304 1047 304 1034 q 308 1064 304 1055 q 348 1012 328 1044 q 401 913 374 962 "},"h":{"x_min":7.671875,"x_max":769,"ha":788,"o":"m 493 914 q 508 925 503 913 q 522 932 514 937 q 536 909 530 928 q 556 894 542 890 q 567 921 563 900 q 583 947 571 943 q 600 932 593 937 q 617 927 608 927 q 632 935 624 927 q 648 931 640 937 q 664 918 655 924 q 681 948 673 927 q 699 980 690 970 q 716 967 711 974 q 721 947 721 959 q 719 923 721 936 q 717 897 718 910 q 726 866 717 876 l 754 887 l 763 877 q 769 771 769 834 q 769 700 769 708 q 769 601 769 668 q 769 500 769 534 q 753 468 769 487 q 736 442 738 450 q 735 422 735 434 q 735 404 735 409 q 749 266 735 369 q 756 184 756 215 q 751 134 756 159 q 732 109 736 125 q 728 73 728 94 l 728 48 q 705 44 715 33 q 688 68 694 61 q 664 75 679 83 q 652 66 657 69 q 642 68 647 64 q 628 98 634 75 q 610 129 623 122 q 576 114 598 114 q 534 114 553 114 q 529 129 531 115 q 515 143 526 143 q 499 116 504 125 q 477 96 488 101 q 462 96 470 96 q 453 107 455 97 q 465 141 465 122 q 459 173 465 154 q 447 231 447 218 q 451 279 451 255 q 440 348 451 315 q 412 361 429 361 q 379 356 390 358 q 357 339 362 351 q 353 306 353 327 q 353 273 353 284 q 351 255 353 266 q 343 188 347 215 q 308 152 339 161 q 294 125 301 138 q 277 133 288 123 q 256 136 266 143 q 242 118 248 125 q 226 119 236 112 q 207 141 216 130 q 191 136 200 145 q 174 131 181 126 q 139 161 169 141 q 120 182 125 169 l 105 182 q 74 150 97 168 q 46 116 52 131 q 29 109 38 109 q 10 114 23 109 l 7 120 q 24 301 24 261 q 28 483 28 399 l 28 744 q 28 814 28 771 q 28 865 28 858 q 32 887 32 873 q 32 928 32 907 q 42 917 36 927 q 60 900 49 907 q 89 887 71 894 q 97 921 94 897 q 105 955 99 946 q 123 949 114 958 q 138 928 132 940 q 140 901 138 910 q 151 887 142 893 q 169 914 161 901 q 193 942 178 927 q 202 961 199 952 q 211 972 206 969 q 234 957 226 972 q 238 939 238 946 q 236 915 236 924 q 246 888 236 898 q 259 899 251 899 q 290 891 274 894 q 306 930 300 903 q 316 962 313 957 q 330 942 327 955 q 334 907 334 928 q 334 888 334 897 q 334 869 334 879 q 334 822 334 854 q 334 775 334 790 q 335 730 334 747 q 343 695 336 714 q 361 688 350 688 q 379 691 366 688 q 395 695 391 695 q 405 717 402 703 q 408 746 408 730 q 408 767 408 757 q 408 789 408 778 q 408 841 408 814 q 408 896 408 868 q 424 892 416 899 q 435 886 432 886 q 443 896 439 886 q 443 919 443 908 q 443 940 443 931 q 449 983 443 959 q 476 950 464 974 q 493 914 488 926 "},"0":{"x_min":1.421875,"x_max":826,"ha":823,"o":"m 439 947 q 456 954 447 953 q 475 956 465 956 q 528 941 499 956 q 616 909 596 909 q 647 900 638 903 q 692 871 675 892 q 762 765 726 818 q 808 646 798 702 q 826 523 826 594 q 822 457 826 488 q 811 387 819 426 q 764 308 779 334 q 706 229 736 260 q 673 217 694 217 q 634 217 653 217 q 578 170 624 211 q 517 141 545 141 q 500 142 506 141 q 444 135 462 135 q 416 135 426 135 q 272 170 330 135 q 219 208 261 175 q 162 237 186 233 q 56 352 92 280 q 20 513 20 424 q 15 546 20 530 q 1 578 9 562 q 21 727 1 669 q 111 840 47 802 q 172 907 125 878 q 251 956 212 930 q 285 966 265 961 q 322 971 306 971 q 383 947 359 971 l 439 947 m 352 681 q 289 544 321 612 q 328 480 296 513 q 383 426 367 442 q 398 422 392 422 q 426 433 409 422 q 450 447 443 445 q 520 538 511 460 q 520 616 520 592 q 495 656 518 640 q 451 690 472 673 q 426 690 445 690 q 397 690 408 690 q 352 681 368 690 "},".":{"x_min":26,"x_max":370,"ha":375,"o":"m 259 436 l 367 276 q 370 257 370 265 q 360 240 370 244 q 330 249 348 249 q 289 240 314 249 q 261 210 287 239 q 229 192 244 192 q 217 194 225 192 q 156 228 186 211 q 136 216 144 228 q 83 250 113 216 q 53 281 64 272 q 38 301 51 282 q 26 332 26 319 q 68 368 49 343 q 100 416 89 402 q 133 423 110 423 q 160 423 152 423 q 193 441 175 433 q 227 450 210 450 q 259 436 246 450 "},"f":{"x_min":23,"x_max":689.890625,"ha":665,"o":"m 153 977 q 167 955 158 974 q 188 938 176 937 q 199 958 195 951 q 214 966 203 966 q 234 953 222 965 q 255 947 247 942 q 353 947 286 947 q 439 947 420 947 q 463 947 451 947 q 492 949 475 947 q 528 954 504 945 q 560 964 552 964 q 589 944 578 964 q 583 930 583 938 q 589 903 589 910 q 575 891 589 892 q 550 884 562 887 q 535 866 537 878 q 568 859 549 859 q 584 859 576 859 q 604 862 598 862 q 627 864 623 866 q 607 829 634 847 q 581 807 581 811 q 603 792 581 799 q 638 781 625 785 q 658 772 651 778 q 625 753 658 759 q 592 743 592 747 q 617 722 592 738 q 639 713 638 716 q 628 697 640 704 q 620 677 615 689 q 651 655 632 664 q 688 637 670 645 l 689 626 q 669 625 683 625 q 624 630 654 625 q 578 636 594 636 q 571 625 571 630 q 574 609 574 613 q 565 597 574 599 q 546 585 554 590 q 541 569 538 580 q 561 562 545 563 q 582 551 578 561 q 574 522 583 540 q 565 498 565 505 q 579 476 565 485 q 569 449 582 465 q 550 447 558 448 q 539 440 542 446 q 557 418 538 428 q 577 405 577 408 q 561 394 577 399 q 515 390 537 390 q 454 395 489 390 q 353 408 373 408 l 341 391 q 346 298 341 359 q 352 208 352 237 q 347 151 352 180 q 337 144 342 144 q 313 155 320 152 q 288 184 297 166 q 271 219 279 201 q 253 209 259 223 q 237 200 248 196 q 211 196 219 196 q 200 208 204 196 q 169 189 187 205 q 146 172 151 173 q 107 158 135 162 q 67 142 79 153 q 55 155 59 144 q 47 177 50 166 q 47 295 47 236 q 47 416 47 355 q 39 595 47 519 l 39 611 q 39 768 39 694 q 23 916 39 843 q 25 931 25 921 q 23 959 23 951 q 34 982 23 974 q 53 973 44 973 q 70 978 60 973 q 97 991 91 991 q 112 984 105 991 q 135 987 128 987 q 153 977 146 987 m 322 673 l 313 667 q 327 640 311 659 q 362 640 339 640 q 414 640 388 640 q 466 640 440 640 l 479 648 q 478 660 482 650 q 401 668 447 664 q 322 673 354 673 "},"i":{"x_min":10.390625,"x_max":371,"ha":387,"o":"m 306 939 q 318 955 310 940 q 338 966 326 969 q 344 930 344 951 q 338 891 344 914 q 327 847 333 868 q 317 753 317 805 q 317 643 317 701 l 317 614 q 357 426 344 523 q 371 225 371 329 q 349 194 368 205 q 312 174 330 183 q 263 180 288 176 q 229 139 258 151 q 172 118 199 128 q 147 144 154 115 q 130 174 140 174 q 108 164 122 174 q 98 156 107 162 q 82 153 89 150 q 56 180 71 158 q 27 203 40 203 q 27 291 27 232 q 27 379 27 350 l 27 396 q 19 518 27 457 q 24 651 24 591 q 24 783 24 722 q 10 916 14 873 l 14 929 q 37 901 31 926 q 58 873 44 876 q 82 962 70 918 q 110 918 101 958 q 141 878 118 878 q 156 880 145 878 q 172 925 165 894 q 182 964 179 957 q 214 948 204 966 q 223 905 212 919 q 239 921 233 908 q 250 947 244 933 q 259 971 255 961 q 270 986 263 980 q 289 963 282 984 q 306 939 295 941 "},"A":{"x_min":18,"x_max":971,"ha":994,"o":"m 558 1004 q 552 984 555 997 q 551 961 549 972 q 575 950 559 952 q 604 947 590 948 q 623 961 611 961 q 641 955 628 961 q 660 950 653 950 q 677 962 670 950 q 692 968 683 968 q 707 963 701 968 q 741 923 728 949 q 771 832 750 906 q 822 623 792 758 q 868 405 841 539 q 905 295 889 341 q 971 112 966 125 q 961 90 971 92 q 915 105 942 83 q 880 128 889 128 q 852 104 865 128 q 828 126 838 106 q 805 148 818 147 q 799 136 799 143 q 801 123 799 132 q 799 107 803 114 q 763 97 781 101 q 748 102 756 97 q 726 130 740 107 q 697 155 713 152 q 690 139 690 151 q 693 114 693 121 q 689 108 693 110 q 677 110 686 105 q 649 182 662 129 q 615 257 636 236 q 416 247 507 257 q 382 159 409 240 q 349 110 370 126 q 328 101 341 101 q 299 106 309 106 q 279 97 290 106 q 264 104 272 95 q 256 114 257 112 q 160 49 196 90 l 151 48 q 154 87 154 74 q 150 104 154 97 q 129 100 135 100 q 120 107 124 100 q 124 125 119 114 q 130 141 130 137 q 123 154 130 148 q 98 136 110 150 q 60 101 69 105 l 18 101 q 33 144 18 121 q 79 209 56 176 q 130 266 113 222 q 160 340 152 329 q 182 452 171 395 q 295 808 250 619 q 387 983 329 897 q 408 980 394 984 q 428 976 422 976 q 445 995 435 980 q 466 1005 454 1011 q 475 986 470 1001 q 490 969 479 972 q 514 995 500 972 q 537 1019 528 1019 q 558 1004 547 1019 m 543 644 q 522 607 532 632 q 495 537 509 572 q 494 518 491 529 q 506 503 498 507 q 534 503 515 503 q 555 503 552 503 q 592 512 579 503 q 585 559 589 539 q 570 602 581 579 q 560 630 564 619 q 543 644 556 641 "},"6":{"x_min":10,"x_max":708,"ha":726,"o":"m 694 539 q 708 472 708 507 q 700 403 708 453 q 693 336 693 353 q 641 249 678 290 q 557 180 604 208 q 492 151 545 178 q 421 136 452 132 q 398 146 412 143 q 369 149 384 149 l 340 149 q 313 151 322 149 q 189 183 196 180 q 122 228 152 198 q 37 347 56 241 q 10 442 24 415 q 27 529 10 483 q 62 618 45 575 l 50 662 q 110 754 67 706 q 235 896 232 890 q 268 929 239 899 q 307 958 288 950 q 305 936 305 943 q 310 926 305 930 q 340 943 322 929 q 367 960 358 957 q 405 980 386 969 q 431 987 416 986 l 437 979 q 429 961 437 973 q 421 944 421 948 q 429 934 421 937 q 526 962 477 948 q 532 946 531 960 q 543 932 534 932 q 557 934 549 932 q 581 942 577 942 q 594 937 587 942 q 584 916 594 930 q 575 896 575 903 q 580 883 575 889 q 608 886 589 878 q 627 895 626 895 q 641 881 637 895 l 637 867 q 476 742 556 804 q 490 719 476 726 q 520 706 505 711 q 626 649 575 706 q 694 539 665 604 m 426 379 q 433 422 433 403 q 412 479 433 457 q 395 508 404 486 q 354 545 378 545 q 209 458 256 535 q 207 440 207 451 q 219 403 207 422 q 245 366 232 383 q 290 353 261 353 q 315 353 298 353 q 340 353 332 353 q 390 358 369 353 q 426 379 412 363 "},"O":{"x_min":-17.5,"x_max":842.71875,"ha":859,"o":"m 509 974 q 644 932 582 962 q 758 848 705 902 q 780 816 773 827 q 788 776 792 795 q 842 407 842 598 q 815 292 829 349 q 754 190 795 227 q 735 187 743 187 q 702 190 713 190 q 687 187 698 190 q 532 142 610 159 q 378 126 454 126 q 352 139 364 130 q 324 164 339 148 q 223 190 272 164 q 137 252 188 209 q 68 314 103 274 q 9 389 54 331 q -5 445 -5 410 q -5 489 -5 475 q -7 519 -5 506 q -17 543 -9 532 q 20 725 -5 653 q 120 880 54 817 q 264 977 186 944 q 288 965 276 980 q 306 949 299 950 q 364 970 326 955 q 467 996 431 996 q 484 995 477 996 l 509 974 m 472 701 q 396 689 437 701 q 322 666 345 673 q 281 609 291 652 q 273 535 276 557 q 313 488 301 500 q 362 449 339 460 q 408 448 375 448 q 442 448 441 448 q 481 452 465 448 q 509 470 497 457 q 537 543 535 535 q 546 592 546 570 q 532 644 546 620 l 472 701 m 762 373 l 755 367 l 698 267 q 714 259 705 260 q 736 259 723 257 q 748 273 746 262 q 754 288 750 284 q 768 352 761 320 q 762 373 768 363 "},"n":{"x_min":15,"x_max":946,"ha":957,"o":"m 174 950 l 198 950 q 237 956 222 950 q 258 982 253 962 q 298 969 283 986 q 341 904 320 936 l 588 657 q 633 711 633 665 q 633 800 633 757 q 641 831 633 811 q 650 858 650 851 q 643 881 650 869 q 629 847 633 872 q 622 811 626 821 q 611 857 611 828 q 614 892 611 871 q 622 932 618 913 q 633 938 630 938 q 647 914 639 925 q 661 937 652 917 q 687 950 671 957 q 710 946 700 940 q 722 964 713 948 q 744 980 732 980 q 751 961 751 974 q 759 928 751 935 q 772 937 766 929 q 785 956 778 946 q 817 973 802 967 q 849 980 831 980 q 880 971 864 980 q 902 990 886 971 q 918 1000 910 1000 q 933 994 927 1000 q 941 955 937 978 q 946 914 946 933 q 929 840 929 888 q 929 757 929 792 l 929 704 q 929 550 929 658 q 929 409 929 442 q 929 349 929 375 q 928 293 929 322 q 936 232 936 274 q 940 176 936 190 q 922 160 935 160 q 892 170 901 170 q 879 151 883 170 q 852 146 872 149 q 824 139 832 144 q 793 146 812 135 q 771 157 775 157 q 755 147 763 157 l 706 189 q 685 174 683 189 q 675 144 688 159 q 601 186 641 149 q 536 246 543 242 q 463 322 501 284 q 389 386 426 361 q 373 382 378 389 q 367 364 369 375 q 365 341 365 353 q 365 324 365 329 q 362 254 365 275 q 343 213 359 232 q 322 216 336 210 q 305 223 307 223 q 295 204 295 223 q 245 140 295 170 q 207 106 215 124 q 181 115 192 106 q 143 151 162 133 q 107 159 129 159 q 80 157 95 159 q 64 156 65 156 q 42 159 56 156 l 33 197 q 33 351 33 249 q 33 486 33 453 l 33 502 q 33 556 33 528 q 31 611 33 585 q 24 651 24 632 q 24 695 24 670 q 24 745 24 711 q 24 795 24 778 q 24 819 24 807 q 23 844 23 836 q 19 889 23 860 q 15 932 15 918 q 19 960 15 944 q 30 968 23 968 q 43 961 35 968 q 54 955 52 955 q 105 968 79 961 q 140 1005 133 980 q 156 979 150 1001 q 174 950 163 957 "},"3":{"x_min":24,"x_max":541,"ha":556,"o":"m 369 936 q 514 839 459 918 q 537 743 537 796 q 516 643 537 691 q 458 550 495 594 q 474 523 458 538 q 492 505 491 508 q 531 435 522 476 q 541 337 541 393 q 524 285 530 303 q 502 232 514 253 q 438 155 502 183 q 380 130 409 143 q 327 119 354 125 q 274 114 300 114 q 223 121 244 114 q 182 151 201 129 q 127 164 143 157 q 83 205 97 176 q 58 219 71 211 q 44 240 46 228 q 57 260 44 260 q 99 253 78 255 q 170 269 147 264 q 230 307 212 280 q 236 337 236 322 q 230 372 236 354 q 212 429 221 400 q 154 462 206 440 q 121 492 131 472 q 71 495 91 492 q 40 515 52 498 q 44 533 38 529 q 63 538 50 538 l 80 538 q 105 544 98 538 q 178 580 139 557 q 249 626 210 598 q 254 654 254 641 q 222 722 254 686 q 162 780 214 731 q 147 778 151 778 q 117 781 136 778 q 95 785 98 785 q 63 766 75 785 q 48 765 59 765 q 24 783 24 765 q 57 832 36 808 q 132 898 61 836 q 189 947 133 900 q 227 964 208 964 q 293 957 242 957 q 369 936 343 957 "},"]":{"x_min":30.9375,"x_max":608,"ha":623,"o":"m 572 951 q 580 891 576 914 q 605 855 584 869 q 608 822 608 844 q 597 761 608 804 q 586 707 586 719 l 586 386 q 570 361 570 375 q 575 330 570 352 q 581 301 581 308 q 564 271 581 283 q 559 209 559 258 q 548 136 559 161 l 520 122 q 362 122 467 122 q 208 122 256 122 q 181 131 189 127 q 169 143 173 135 q 192 161 189 152 q 168 172 188 170 q 126 177 149 175 q 96 180 104 177 q 80 194 88 183 q 88 211 80 205 q 118 226 103 218 q 147 237 135 233 q 165 252 158 241 q 106 282 135 266 q 86 322 106 318 l 74 326 q 136 357 96 348 q 205 371 176 365 q 249 379 234 376 q 272 396 264 382 q 261 475 264 434 q 259 571 259 516 q 259 665 259 618 q 259 759 259 712 l 248 771 l 221 771 q 123 771 152 771 q 47 786 94 771 q 33 814 24 801 q 73 819 41 816 q 119 833 106 822 l 122 855 q 234 866 183 861 q 321 879 285 872 q 325 884 322 882 q 328 889 328 887 q 297 896 318 896 q 260 896 278 896 q 165 907 196 902 q 84 950 109 917 l 366 950 q 445 960 400 960 q 533 968 491 960 q 572 951 565 968 "},"9":{"x_min":22,"x_max":761.578125,"ha":768,"o":"m 478 990 q 540 966 507 990 q 639 912 615 912 q 723 802 699 842 q 761 670 761 737 q 728 539 761 607 q 660 422 713 507 q 645 381 660 403 q 617 346 626 357 q 520 242 567 288 q 411 151 467 191 q 370 137 396 137 q 338 142 362 137 q 300 147 313 147 q 260 131 276 147 q 241 131 249 131 q 229 139 233 132 q 236 153 229 142 q 238 170 244 163 q 177 198 227 174 q 114 216 140 216 q 69 202 91 216 q 35 211 42 204 l 38 220 q 120 279 79 249 q 200 346 166 314 q 186 372 205 364 q 151 389 167 381 q 60 492 91 421 q 22 628 42 532 q 22 646 22 641 q 22 687 22 673 q 26 721 22 706 q 43 748 31 737 q 37 783 37 769 q 66 855 37 817 q 125 927 96 892 q 209 977 160 962 q 318 993 259 993 q 367 993 348 993 q 445 983 385 993 l 478 990 m 412 779 q 351 752 384 770 q 296 716 330 741 q 292 692 292 703 q 309 646 292 669 q 372 578 340 611 q 387 574 378 574 q 406 580 399 574 q 460 610 440 580 q 490 667 475 638 q 478 708 497 688 q 444 745 460 727 q 431 764 438 749 q 412 779 423 779 "},"m":{"x_min":27,"x_max":1158,"ha":1154,"o":"m 279 978 q 320 950 293 979 q 345 935 335 935 q 366 946 356 935 q 391 950 376 940 q 417 954 406 960 q 561 657 489 806 q 576 648 567 648 q 591 654 584 648 q 645 757 616 692 q 675 822 660 789 q 693 822 685 826 q 697 796 696 807 q 707 781 699 785 q 727 797 719 782 q 736 819 729 800 q 744 883 744 837 q 765 947 744 928 q 765 978 765 962 q 775 1003 765 994 q 802 996 788 1004 q 823 988 816 988 q 841 967 833 975 q 858 960 849 960 q 873 966 866 960 q 887 979 879 972 q 905 979 895 986 q 915 963 907 976 q 932 948 924 950 q 966 953 955 953 q 982 948 974 953 q 1019 849 1008 919 q 1035 767 1031 779 l 1076 585 q 1115 482 1099 540 q 1140 373 1128 437 q 1123 372 1133 365 q 1111 379 1113 379 q 1090 418 1098 390 q 1077 452 1081 447 q 1026 574 1051 512 q 1019 567 1023 574 q 1019 555 1015 561 q 1026 523 1024 543 q 1031 483 1028 502 q 1091 329 1079 359 q 1158 176 1115 269 q 1146 157 1158 170 q 1140 132 1134 144 q 1096 150 1125 150 q 1066 150 1081 150 q 1032 134 1061 137 q 1007 107 1004 132 q 975 111 993 107 q 939 119 956 115 l 838 224 l 785 336 q 775 338 778 338 q 771 339 773 338 q 729 263 759 322 q 636 151 685 180 q 644 124 633 141 q 651 98 655 107 q 552 176 603 126 q 399 336 475 255 q 381 327 387 336 q 370 304 375 319 q 346 230 362 272 q 317 158 320 165 q 278 130 298 134 q 268 163 271 136 q 244 186 264 190 q 161 92 202 139 q 143 104 149 92 q 134 129 138 116 q 136 152 138 148 q 116 161 128 161 q 74 136 105 161 q 51 124 59 124 q 27 158 36 124 q 41 237 27 192 q 85 370 83 362 q 81 404 81 381 q 96 478 81 431 q 115 539 112 525 q 150 709 128 578 q 199 872 168 815 q 222 950 202 897 q 237 997 236 985 q 248 1006 240 1004 q 264 1008 256 1007 l 279 978 "},"8":{"x_min":16.40625,"x_max":645,"ha":646,"o":"m 480 957 q 497 973 491 957 q 511 989 504 989 q 527 982 515 989 q 545 961 538 976 q 556 926 552 947 q 598 895 576 911 q 630 852 622 874 q 639 761 639 808 q 627 665 639 709 q 590 584 615 622 q 599 545 583 566 q 624 508 621 517 q 645 416 645 462 q 622 311 645 361 q 557 209 599 261 q 462 124 477 134 q 394 104 430 104 q 374 105 381 104 q 262 140 319 115 q 89 241 197 169 q 52 303 67 266 q 24 376 37 340 q 16 436 16 408 q 27 513 16 472 q 72 620 37 554 q 61 667 72 640 q 36 745 36 729 q 39 766 36 752 q 35 794 35 781 q 62 869 35 830 q 118 931 78 893 q 139 929 126 933 q 153 925 152 925 q 167 937 161 925 q 176 968 161 955 q 205 984 197 980 q 275 1005 254 999 q 354 1015 316 1015 q 425 1001 393 1015 q 480 957 458 987 m 341 751 q 329 754 337 754 q 295 735 318 754 q 274 723 282 726 q 304 684 277 722 q 344 666 322 659 q 364 682 355 672 q 370 705 372 692 l 341 751 m 285 480 q 265 419 274 450 q 266 405 265 410 q 286 382 273 390 q 319 370 300 374 q 359 374 342 370 q 385 396 375 379 q 388 412 388 407 q 372 455 388 430 q 356 480 360 472 q 321 492 344 492 q 285 480 297 492 "},"l":{"x_min":1.109375,"x_max":593.578125,"ha":599,"o":"m 145 891 q 152 887 148 888 q 157 888 156 886 q 170 908 163 898 q 190 915 176 919 q 247 895 221 915 q 260 867 255 875 q 275 862 265 859 q 305 882 281 882 q 318 880 314 882 l 320 866 l 320 577 q 320 542 320 560 q 318 508 320 524 q 318 492 318 499 q 313 466 314 474 q 343 455 325 455 q 377 461 355 455 q 405 468 398 468 q 552 494 479 480 l 569 494 q 585 485 582 494 q 553 455 581 466 q 520 438 525 445 q 537 428 526 428 q 559 430 552 430 q 575 423 570 430 q 552 397 574 409 q 529 378 529 385 q 537 365 529 373 l 558 365 q 593 351 589 365 q 518 330 571 330 q 446 317 464 330 q 453 300 445 312 q 501 300 475 300 q 543 291 526 300 q 534 278 544 283 q 509 270 524 273 q 476 264 494 266 q 446 250 458 261 q 477 235 452 235 q 509 228 502 235 q 433 174 475 195 q 348 154 392 154 q 294 145 321 148 q 235 143 268 143 q 156 148 189 143 q 148 165 155 149 q 129 181 141 181 q 93 172 116 181 q 58 164 70 164 q 34 171 44 164 l 34 200 q 31 246 34 232 q 12 279 29 261 q 12 397 12 317 q 12 516 12 476 q 12 588 12 560 q 24 652 13 616 q 17 724 24 684 q 1 845 1 820 q 24 857 16 841 q 42 888 33 873 q 44 932 42 915 q 67 954 47 950 q 84 960 74 957 q 99 964 93 964 q 116 955 108 964 q 133 924 118 952 q 145 891 144 905 "},"p":{"x_min":3,"x_max":701,"ha":717,"o":"m 189 983 q 209 981 195 985 q 227 978 222 978 q 242 985 236 978 q 242 1007 242 999 q 252 1018 243 1015 q 271 1012 262 1019 q 290 999 280 1006 q 471 971 382 999 q 476 953 479 965 q 554 907 498 937 q 673 815 639 860 q 690 729 675 805 q 701 640 701 672 q 695 589 701 613 q 676 542 690 565 q 646 479 661 531 q 624 442 639 454 q 539 374 596 400 q 380 297 385 303 q 385 238 380 274 q 398 137 398 157 q 386 130 393 136 q 374 125 380 124 q 359 148 367 136 q 339 160 351 160 q 325 155 333 160 q 310 158 320 151 q 296 162 301 164 q 283 138 291 158 q 258 124 274 118 q 240 153 250 137 q 214 176 231 170 q 194 158 206 175 q 167 147 182 140 q 149 170 156 168 q 117 151 137 170 q 82 139 98 133 q 81 161 81 142 q 71 178 81 172 q 47 162 57 181 q 26 144 38 143 q 46 258 35 201 q 57 378 57 328 q 44 459 44 411 q 44 552 44 507 q 35 622 44 574 q 26 683 26 669 q 32 728 26 708 q 3 968 17 847 l 3 1006 q 54 1006 28 1006 q 82 957 71 994 q 95 922 88 933 q 105 947 105 932 q 102 979 102 968 q 106 996 102 990 q 119 978 110 993 q 141 963 129 963 q 151 997 151 973 q 155 1033 151 1026 q 173 1009 164 1028 q 189 983 182 990 m 385 717 q 363 724 372 724 q 349 711 354 724 q 345 676 345 699 q 349 627 345 660 q 354 582 354 595 q 366 577 359 577 q 385 584 373 577 q 402 593 398 592 q 430 611 415 601 q 457 660 464 635 l 385 717 "},"4":{"x_min":13.921875,"x_max":759.328125,"ha":750,"o":"m 710 992 l 702 921 l 648 705 q 633 649 637 663 q 609 595 624 617 q 609 580 609 584 q 609 552 609 570 q 609 525 609 534 q 614 491 609 505 q 666 475 634 475 q 691 476 683 475 q 734 486 721 484 q 727 462 741 477 q 719 448 719 452 q 724 438 719 443 q 747 441 740 441 q 759 435 753 441 q 736 406 756 423 q 714 383 716 390 q 727 378 719 378 q 743 376 740 378 q 737 354 743 365 q 716 313 726 333 q 689 293 712 308 q 666 263 666 277 q 687 252 670 256 q 706 236 705 248 q 676 229 695 229 l 652 229 q 633 226 641 229 q 620 213 625 223 l 620 190 q 622 162 620 171 q 633 143 624 153 q 625 130 634 133 q 609 132 615 128 q 590 153 600 137 q 570 173 580 169 q 558 161 564 165 q 529 158 543 151 q 509 175 519 166 q 500 165 502 171 q 494 155 497 159 q 474 138 485 140 q 448 142 457 142 q 419 140 434 142 q 389 137 404 138 q 357 144 370 137 l 347 148 q 345 173 345 157 q 345 211 345 198 q 340 237 345 227 q 319 254 335 247 q 240 248 293 254 q 159 243 187 243 q 121 244 138 243 q 87 251 105 245 q 63 295 72 263 q 16 371 43 357 q 19 397 9 382 q 29 416 29 413 q 22 428 29 423 q 43 450 27 441 q 93 481 88 476 q 166 549 138 514 q 215 634 202 591 q 396 837 287 709 q 502 962 468 921 q 517 989 508 966 q 542 1005 525 1012 q 551 986 546 999 q 564 969 557 973 q 591 987 576 967 q 614 1008 607 1008 q 630 994 622 1008 q 615 948 632 980 q 598 905 598 917 q 630 877 598 884 q 656 928 641 892 q 697 1014 685 995 q 710 992 713 1016 m 324 537 q 302 516 317 530 q 270 475 275 492 q 296 468 278 468 q 309 468 302 468 q 330 471 319 471 q 341 500 341 471 l 341 520 q 324 537 341 537 "},"R":{"x_min":20,"x_max":676.140625,"ha":692,"o":"m 449 972 q 571 876 510 923 q 640 804 610 844 q 676 725 669 765 q 646 666 658 708 q 625 608 635 623 l 539 498 q 555 433 539 466 q 590 373 555 432 l 667 242 l 673 208 q 632 203 655 203 q 597 206 614 203 q 559 218 580 209 q 544 196 548 216 q 524 177 540 177 q 462 194 492 185 q 439 188 450 194 q 431 178 434 182 q 413 164 420 167 q 365 225 389 184 q 325 290 336 278 q 309 267 309 289 l 309 244 q 306 228 309 231 q 300 209 303 225 q 283 203 297 194 q 281 212 281 205 q 281 222 281 218 q 274 237 281 233 q 255 231 267 231 q 232 233 245 231 q 200 201 219 229 q 168 173 180 173 q 146 185 158 173 q 124 207 143 186 q 101 221 111 221 l 90 218 l 40 194 l 35 203 q 31 300 31 246 q 31 403 31 340 q 31 466 31 465 q 31 522 31 490 q 31 587 31 541 q 31 637 31 632 q 31 673 31 655 q 28 697 29 690 q 31 733 31 722 q 25 800 31 755 q 20 866 20 844 q 31 933 20 904 q 29 965 31 945 q 27 987 27 986 q 28 1005 27 998 q 60 1024 41 1024 q 86 1016 71 1024 q 134 1000 123 1000 q 151 1012 139 1001 q 175 1018 164 1024 q 200 986 187 1001 q 243 1001 222 983 q 247 1030 243 1024 q 264 1037 252 1037 q 299 1053 275 1053 q 310 1052 305 1053 q 326 1047 315 1051 q 449 972 387 1009 m 299 775 q 295 721 295 752 q 295 673 295 697 q 295 628 295 650 l 303 619 q 321 623 311 621 q 352 648 326 629 q 389 702 389 676 q 351 748 371 732 q 299 775 326 769 "},"5":{"x_min":20.359375,"x_max":641.046875,"ha":642,"o":"m 641 972 q 619 945 639 958 q 602 918 600 933 q 573 882 597 902 q 543 851 548 862 l 551 844 q 577 846 560 842 q 594 851 593 851 q 612 838 607 851 q 539 796 593 816 q 465 746 485 776 q 419 734 449 739 q 339 718 345 720 q 328 707 333 716 q 328 687 322 699 q 388 659 333 682 q 423 637 409 649 q 487 577 446 626 q 553 523 524 534 q 573 435 573 480 q 500 253 573 349 q 417 160 481 227 q 348 126 392 141 q 302 111 315 115 q 130 161 209 111 q 20 298 51 212 q 41 319 21 312 q 66 337 61 327 q 92 328 80 330 q 126 326 104 326 l 147 326 q 189 302 156 323 q 231 291 215 285 q 252 367 252 321 q 245 421 252 394 q 227 473 239 448 q 117 520 172 514 q 94 506 107 512 q 68 498 80 501 q 68 614 68 546 q 68 814 68 773 l 68 831 q 66 940 68 887 q 117 951 88 951 q 168 946 133 951 q 213 941 202 941 q 234 946 227 941 l 460 946 q 551 959 491 946 q 641 972 611 972 "},"o":{"x_min":-17.5,"x_max":842.71875,"ha":859,"o":"m 509 974 q 644 932 582 962 q 758 848 705 902 q 780 816 773 827 q 788 776 792 795 q 842 407 842 598 q 815 292 829 349 q 754 190 795 227 q 735 187 743 187 q 702 190 713 190 q 687 187 698 190 q 532 142 610 159 q 378 126 454 126 q 352 139 364 130 q 324 164 339 148 q 223 190 272 164 q 137 252 188 209 q 68 314 103 274 q 9 389 54 331 q -5 445 -5 410 q -5 489 -5 475 q -7 519 -5 506 q -17 543 -9 532 q 20 725 -5 653 q 120 880 54 817 q 264 977 186 944 q 288 965 276 980 q 306 949 299 950 q 364 970 326 955 q 467 996 431 996 q 484 995 477 996 l 509 974 m 472 701 q 396 689 437 701 q 322 666 345 673 q 281 609 291 652 q 273 535 276 557 q 313 488 301 500 q 362 449 339 460 q 408 448 375 448 q 442 448 441 448 q 481 452 465 448 q 509 470 497 457 q 537 543 535 535 q 546 592 546 570 q 532 644 546 620 l 472 701 m 762 373 l 755 367 l 698 267 q 714 259 705 260 q 736 259 723 257 q 748 273 746 262 q 754 288 750 284 q 768 352 761 320 q 762 373 768 363 "}}}
